<svg width="48" height="48" viewBox="0 0 48 48" fill="none" xmlns="http://www.w3.org/2000/svg">
<rect x="0.5" y="0.5" width="47" height="47" rx="4.5" stroke="#222222"/>
<path d="M30.7368 28.2059C31.0612 28.206 31.3731 28.3195 31.6079 28.5228C31.8427 28.7261 31.9823 29.0036 31.9979 29.2978C32.0135 29.5921 31.9038 29.8805 31.6916 30.1033C31.4794 30.3261 31.181 30.4662 30.8581 30.4946L30.7368 30.5H17.2632C16.9388 30.4999 16.6269 30.3864 16.3921 30.1831C16.1573 29.9798 16.0177 29.7023 16.0021 29.4081C15.9865 29.1138 16.0962 28.8254 16.3084 28.6026C16.5206 28.3798 16.819 28.2397 17.1419 28.2112L17.2632 28.2059H30.7368ZM30.7368 22.8529C31.0719 22.8529 31.3931 22.9738 31.63 23.1889C31.8669 23.404 32 23.6958 32 24C32 24.3042 31.8669 24.596 31.63 24.8111C31.3931 25.0262 31.0719 25.1471 30.7368 25.1471H17.2632C16.9281 25.1471 16.6069 25.0262 16.37 24.8111C16.1331 24.596 16 24.3042 16 24C16 23.6958 16.1331 23.404 16.37 23.1889C16.6069 22.9738 16.9281 22.8529 17.2632 22.8529H30.7368ZM30.7368 17.5C31.0719 17.5 31.3931 17.6209 31.63 17.836C31.8669 18.0511 32 18.3428 32 18.6471C32 18.9513 31.8669 19.243 31.63 19.4582C31.3931 19.6733 31.0719 19.7941 30.7368 19.7941H17.2632C16.9281 19.7941 16.6069 19.6733 16.37 19.4582C16.1331 19.243 16 18.9513 16 18.6471C16 18.3428 16.1331 18.0511 16.37 17.836C16.6069 17.6209 16.9281 17.5 17.2632 17.5H30.7368Z" fill="#222222"/>
</svg>
