<svg width="16" height="14" viewBox="0 0 16 14" fill="none" xmlns="http://www.w3.org/2000/svg">
<path d="M14.7368 11.2059C15.0612 11.206 15.3731 11.3195 15.6079 11.5228C15.8427 11.7261 15.9823 12.0036 15.9979 12.2978C16.0135 12.5921 15.9038 12.8805 15.6916 13.1033C15.4794 13.3261 15.181 13.4662 14.8581 13.4946L14.7368 13.5H1.26316C0.938765 13.4999 0.626868 13.3864 0.392095 13.1831C0.157323 12.9798 0.0176741 12.7023 0.00208483 12.4081C-0.0135044 12.1138 0.0961615 11.8254 0.308358 11.6026C0.520555 11.3798 0.819015 11.2397 1.14189 11.2112L1.26316 11.2059H14.7368ZM14.7368 5.85294C15.0719 5.85294 15.3931 5.97379 15.63 6.18891C15.8669 6.40402 16 6.69578 16 7C16 7.30422 15.8669 7.59598 15.63 7.81109C15.3931 8.02621 15.0719 8.14706 14.7368 8.14706H1.26316C0.928148 8.14706 0.606858 8.02621 0.36997 7.81109C0.133082 7.59598 0 7.30422 0 7C0 6.69578 0.133082 6.40402 0.36997 6.18891C0.606858 5.97379 0.928148 5.85294 1.26316 5.85294H14.7368ZM14.7368 0.5C15.0719 0.5 15.3931 0.620851 15.63 0.835966C15.8669 1.05108 16 1.34284 16 1.64706C16 1.95128 15.8669 2.24304 15.63 2.45815C15.3931 2.67327 15.0719 2.79412 14.7368 2.79412H1.26316C0.928148 2.79412 0.606858 2.67327 0.36997 2.45815C0.133082 2.24304 0 1.95128 0 1.64706C0 1.34284 0.133082 1.05108 0.36997 0.835966C0.606858 0.620851 0.928148 0.5 1.26316 0.5H14.7368Z" fill="#222222"/>
</svg>
