<svg width="386" height="219" viewBox="0 0 386 219" fill="none" xmlns="http://www.w3.org/2000/svg">
<rect width="386" height="219" rx="15" fill="#EA5708"/>
<path d="M27.2 171.328H34.016V176.128H27.2V190H21.92V156.4H35.888V161.2H27.2V171.328ZM43.46 156.4V182.32C43.46 183.536 43.7 184.384 44.18 184.864C44.692 185.344 45.364 185.584 46.196 185.584C47.028 185.584 47.684 185.344 48.164 184.864C48.676 184.384 48.932 183.536 48.932 182.32V156.4H53.924V181.984C53.924 184.704 53.252 186.8 51.908 188.272C50.596 189.712 48.644 190.432 46.052 190.432C43.46 190.432 41.492 189.712 40.148 188.272C38.836 186.8 38.18 184.704 38.18 181.984V156.4H43.46ZM57.545 156.4H62.825V185.2H71.513V190H57.545V156.4ZM73.9044 156.4H79.1844V185.2H87.8724V190H73.9044V156.4ZM95.5438 171.328H102.36V176.128H95.5438V190H90.2638V156.4H104.232V161.2H95.5438V171.328ZM106.764 156.4H112.044V190H106.764V156.4ZM115.904 156.4H121.184V185.2H129.872V190H115.904V156.4ZM138.277 156.4H154.597V161.2H149.077V190H143.797V161.2H138.277V156.4ZM162.294 190H157.014V156.4H162.294V170.8H168.294V156.4H173.67V190H168.294V175.6H162.294V190ZM182.778 170.56H190.026V175.36H182.778V185.2H191.898V190H177.498V156.4H191.898V161.2H182.778V170.56ZM207.903 171.328H214.719V176.128H207.903V190H202.623V156.4H216.591V161.2H207.903V171.328ZM223.971 182.272C223.971 183.488 224.211 184.352 224.691 184.864C225.203 185.344 225.875 185.584 226.707 185.584C227.539 185.584 228.195 185.344 228.675 184.864C229.187 184.352 229.443 183.488 229.443 182.272V164.128C229.443 162.912 229.187 162.064 228.675 161.584C228.195 161.072 227.539 160.816 226.707 160.816C225.875 160.816 225.203 161.072 224.691 161.584C224.211 162.064 223.971 162.912 223.971 164.128V182.272ZM218.691 164.464C218.691 161.744 219.379 159.664 220.755 158.224C222.131 156.752 224.115 156.016 226.707 156.016C229.299 156.016 231.283 156.752 232.659 158.224C234.035 159.664 234.723 161.744 234.723 164.464V181.936C234.723 184.656 234.035 186.752 232.659 188.224C231.283 189.664 229.299 190.384 226.707 190.384C224.115 190.384 222.131 189.664 220.755 188.224C219.379 186.752 218.691 184.656 218.691 181.936V164.464ZM249.194 190C249.13 189.776 249.066 189.568 249.002 189.376C248.938 189.184 248.874 188.944 248.81 188.656C248.778 188.368 248.746 188 248.714 187.552C248.714 187.104 248.714 186.544 248.714 185.872V180.592C248.714 179.024 248.442 177.92 247.898 177.28C247.354 176.64 246.474 176.32 245.258 176.32H243.434V190H238.154V156.4H246.122C248.874 156.4 250.858 157.04 252.074 158.32C253.322 159.6 253.946 161.536 253.946 164.128V166.768C253.946 170.224 252.794 172.496 250.49 173.584C251.834 174.128 252.746 175.024 253.226 176.272C253.738 177.488 253.994 178.976 253.994 180.736V185.92C253.994 186.752 254.026 187.488 254.09 188.128C254.154 188.736 254.314 189.36 254.57 190H249.194ZM243.434 161.2V171.52H245.498C246.49 171.52 247.258 171.264 247.802 170.752C248.378 170.24 248.666 169.312 248.666 167.968V164.656C248.666 163.44 248.442 162.56 247.994 162.016C247.578 161.472 246.906 161.2 245.978 161.2H243.434ZM268.651 180.256L272.251 156.4H279.595V190H274.603V165.904L270.955 190H265.963L262.027 166.24V190H257.419V156.4H264.763L268.651 180.256Z" fill="white"/>
<path d="M355 25V31H361V49.7246H354.819V35.5518L335.371 55L331 50.6289L350.448 31.1807H336.275V25H355Z" fill="white"/>
</svg>
