<svg width="274" height="48" viewBox="0 0 274 48" fill="none" xmlns="http://www.w3.org/2000/svg">
<path fill-rule="evenodd" clip-rule="evenodd" d="M30.5465 39.5801C31.9283 37.8966 33.9752 36.923 36.1337 36.923H65.4545C73.4878 36.923 80 30.3106 80 22.1539V14.7692C80 6.61242 73.4878 0 65.4545 0H59.77C57.6117 0 55.5647 0.973483 54.183 2.65716L49.4535 8.41981C48.0717 10.1035 46.0248 11.0769 43.8663 11.0769H14.5455C6.51222 11.0769 0 17.6893 0 25.8462V33.2307C0 41.3876 6.51222 48 14.5455 48H20.23C22.3883 48 24.4353 47.0266 25.817 45.3429L30.5465 39.5801ZM69.0908 14.7692C69.0908 12.7299 67.4628 11.0769 65.4545 11.0769H54.3155C52.157 11.0769 50.1102 12.0503 48.7283 13.734L43.9988 19.4968C42.6172 21.1803 40.5702 22.1539 38.4118 22.1539H14.5455C12.5372 22.1539 10.9091 23.8069 10.9091 25.8462V33.2307C10.9091 35.27 12.5372 36.923 14.5455 36.923H25.6845C27.843 36.923 29.8898 35.9496 31.2717 34.2659L36.0012 28.5033C37.3828 26.8196 39.4298 25.8462 41.5882 25.8462H65.4545C67.4628 25.8462 69.0908 24.1931 69.0908 22.1539V14.7692Z" fill="#222222"/>
<path d="M265.699 12.4638H268.837V29.1304H274V31.9082H265.699V12.4638Z" fill="#222222"/>
<path d="M255.336 12.4638H263.894V15.2416H258.474V20.3804H262.781V23.1582H258.474V29.1304H263.894V31.9082H255.336V12.4638Z" fill="#222222"/>
<path d="M244.972 12.4638H253.53V15.2416H248.11V20.3804H252.417V23.1582H248.11V29.1304H253.53V31.9082H244.972V12.4638Z" fill="#222222"/>
<path d="M237.034 15.2416H233.753V12.4638H243.452V15.2416H240.172V31.9082H237.034V15.2416Z" fill="#222222"/>
<path d="M228.047 32.1876C226.526 32.1876 225.375 31.7709 224.595 30.9376C223.816 30.0858 223.426 28.8728 223.426 27.2987V26.1876H226.392V27.5209C226.392 28.7802 226.934 29.4098 228.018 29.4098C228.551 29.4098 228.95 29.2617 229.217 28.9654C229.502 28.6506 229.644 28.1506 229.644 27.4654C229.644 26.6506 229.454 25.9376 229.074 25.3265C228.694 24.6969 227.99 23.9469 226.963 23.0765C225.67 21.9654 224.766 20.9654 224.253 20.0765C223.739 19.1691 223.483 18.1506 223.483 17.0209C223.483 15.4839 223.882 14.2987 224.681 13.4654C225.48 12.6135 226.64 12.1876 228.161 12.1876C229.663 12.1876 230.795 12.6135 231.556 13.4654C232.335 14.2987 232.725 15.5024 232.725 17.0765V17.8821H229.759V16.8821C229.759 16.2154 229.625 15.7339 229.359 15.4376C229.093 15.1228 228.703 14.9654 228.19 14.9654C227.144 14.9654 226.621 15.5858 226.621 16.8265C226.621 17.5302 226.811 18.1876 227.191 18.7987C227.591 19.4098 228.304 20.1506 229.331 21.0209C230.643 22.1321 231.546 23.1413 232.041 24.0487C232.535 24.9561 232.782 26.0209 232.782 27.2432C232.782 28.8358 232.373 30.058 231.556 30.9098C230.757 31.7617 229.587 32.1876 228.047 32.1876Z" fill="#222222"/>
<path d="M210.373 12.4638H214.624L217.876 31.9082H214.738L214.167 28.0471V28.1027H210.602L210.031 31.9082H207.121L210.373 12.4638ZM213.797 25.4638L212.399 15.8527H212.342L210.972 25.4638H213.797Z" fill="#222222"/>
<path d="M202.46 12.4638H205.598V31.9082H202.46V12.4638Z" fill="#222222"/>
<path d="M190.484 12.4638H193.622V20.3804H196.988V12.4638H200.126V31.9082H196.988V23.1582H193.622V31.9082H190.484V12.4638Z" fill="#222222"/>
<path d="M179.515 29.186L185.335 15.2416H179.8V12.4638H188.701V15.186L182.881 29.1304H188.701V31.9082H179.515V29.186Z" fill="#222222"/>
<path d="M168.163 12.4638H171.301V20.3804H174.667V12.4638H177.805V31.9082H174.667V23.1582H171.301V31.9082H168.163V12.4638Z" fill="#222222"/>
<path d="M157.203 29.186L163.022 15.2416H157.488V12.4638H166.388V15.186L160.569 29.1304H166.388V31.9082H157.203V29.186Z" fill="#222222"/>
<path d="M152.344 12.4638H155.482V31.9082H152.344V12.4638Z" fill="#222222"/>
<path d="M140.836 12.4638H145.486C147.102 12.4638 148.281 12.8341 149.023 13.5749C149.765 14.2971 150.136 15.4175 150.136 16.936V18.1304C150.136 20.149 149.451 21.4267 148.082 21.9638V22.0193C148.842 22.2416 149.375 22.6953 149.679 23.3804C150.002 24.0656 150.164 24.9823 150.164 26.1304V29.5471C150.164 30.1027 150.183 30.5564 150.221 30.9082C150.259 31.2416 150.354 31.5749 150.506 31.9082H147.311C147.197 31.5934 147.121 31.2971 147.083 31.0193C147.045 30.7415 147.026 30.2415 147.026 29.5193V25.9638C147.026 25.0749 146.874 24.4545 146.57 24.1027C146.285 23.7508 145.781 23.5749 145.058 23.5749H143.974V31.9082H140.836V12.4638ZM145.115 20.7971C145.743 20.7971 146.208 20.6397 146.513 20.3249C146.836 20.0101 146.998 19.4823 146.998 18.7416V17.2416C146.998 16.5378 146.865 16.0286 146.598 15.7138C146.351 15.399 145.952 15.2416 145.4 15.2416H143.974V20.7971H145.115Z" fill="#222222"/>
<path d="M133.955 32.1876C132.415 32.1876 131.236 31.7617 130.418 30.9098C129.6 30.058 129.191 28.8543 129.191 27.2987V17.0765C129.191 15.5209 129.6 14.3172 130.418 13.4654C131.236 12.6135 132.415 12.1876 133.955 12.1876C135.496 12.1876 136.675 12.6135 137.492 13.4654C138.31 14.3172 138.719 15.5209 138.719 17.0765V27.2987C138.719 28.8543 138.31 30.058 137.492 30.9098C136.675 31.7617 135.496 32.1876 133.955 32.1876ZM133.955 29.4098C135.039 29.4098 135.581 28.7709 135.581 27.4932V16.882C135.581 15.6043 135.039 14.9654 133.955 14.9654C132.871 14.9654 132.329 15.6043 132.329 16.882V27.4932C132.329 28.7709 132.871 29.4098 133.955 29.4098Z" fill="#222222"/>
<path d="M118.414 12.4638H123.035C124.595 12.4638 125.764 12.8712 126.544 13.686C127.324 14.5008 127.714 15.6953 127.714 17.2693V19.186C127.714 20.7601 127.324 21.9545 126.544 22.7693C125.764 23.5841 124.595 23.9916 123.035 23.9916H121.552V31.9082H118.414V12.4638ZM123.035 21.2138C123.549 21.2138 123.929 21.0749 124.176 20.7971C124.443 20.5193 124.576 20.0471 124.576 19.3804V17.0749C124.576 16.4082 124.443 15.936 124.176 15.6582C123.929 15.3804 123.549 15.2416 123.035 15.2416H121.552V21.2138H123.035Z" fill="#222222"/>
<path d="M109.389 12.4638H113.639L116.891 31.9082H113.753L113.183 28.0471V28.1027H109.617L109.046 31.9082H106.137L109.389 12.4638ZM112.812 25.4638L111.414 15.8527H111.357L109.988 25.4638H112.812Z" fill="#222222"/>
<path d="M96 29.186L101.819 15.2416H96.2853V12.4638H105.186V15.186L99.3661 29.1304H105.186V31.9082H96V29.186Z" fill="#222222"/>
</svg>
