<svg width="190" height="112" viewBox="0 0 190 112" fill="none" xmlns="http://www.w3.org/2000/svg">
<g style="mix-blend-mode:luminosity">
<path fill-rule="evenodd" clip-rule="evenodd" d="M72.5479 92.3536C75.8298 88.4254 80.691 86.1537 85.8175 86.1537H155.454C174.534 86.1537 190 70.7248 190 51.6924V34.4614C190 15.429 174.534 0 155.454 0H141.954C136.828 0 131.966 2.27146 128.685 6.20004L117.452 19.6462C114.17 23.5748 109.309 25.8461 104.183 25.8461H34.5454C15.4665 25.8461 0 41.2749 0 60.3077V77.5384C0 96.5712 15.4665 112 34.5454 112H48.0462C53.1723 112 58.0339 109.729 61.3154 105.8L72.5479 92.3536ZM164.091 34.4614C164.091 29.7032 160.224 25.8461 155.454 25.8461H128.999C123.873 25.8461 119.012 28.1174 115.73 32.046L104.497 45.4925C101.216 49.4207 96.3541 51.6924 91.2281 51.6924H34.5454C29.7757 51.6924 25.9091 55.5495 25.9091 60.3077V77.5384C25.9091 82.2966 29.7757 86.1537 34.5454 86.1537H61.0007C66.1271 86.1537 70.9884 83.8824 74.2702 79.9538L85.5028 66.5076C88.7842 62.579 93.6459 60.3077 98.7719 60.3077H155.454C160.224 60.3077 164.091 56.4506 164.091 51.6924V34.4614Z" fill="white"/>
</g>
</svg>
