<svg width="250" height="45" viewBox="0 0 250 45" fill="none" xmlns="http://www.w3.org/2000/svg">
<g clip-path="url(#clip0_4_59)">
<path d="M60.2889 10.0349C60.501 10.0331 60.501 10.0331 60.7174 10.0312C60.8715 10.0307 61.0255 10.0301 61.1842 10.0296C61.3413 10.0289 61.4984 10.0281 61.6602 10.0274C61.9933 10.0262 62.3264 10.0253 62.6595 10.0249C63.0865 10.0242 63.5134 10.0211 63.9403 10.0175C64.3471 10.0146 64.7539 10.0144 65.1608 10.0138C65.3143 10.0122 65.4678 10.0106 65.626 10.009C65.7682 10.0094 65.9104 10.0098 66.0569 10.0102C66.1823 10.0097 66.3077 10.0093 66.4368 10.0088C66.7516 10.0553 66.7516 10.0553 66.973 10.2242C67.209 10.5475 67.303 10.8905 67.4235 11.2722C67.4501 11.356 67.4768 11.4397 67.5043 11.526C67.724 12.2226 67.9247 12.9247 68.1251 13.6271C68.3655 14.461 68.6368 15.2833 68.911 16.1064C69.2915 17.2504 69.6519 18.4005 70.0118 19.5513C70.2129 20.1926 70.4159 20.8333 70.6188 21.4741C70.6808 21.6701 70.6808 21.6701 70.7441 21.8702C70.9607 22.5546 71.1775 23.239 71.3946 23.9233C71.4824 24.2 71.5701 24.4768 71.6578 24.7535C71.7207 24.9516 71.7207 24.9516 71.7848 25.1537C72.0445 25.9742 72.298 26.7961 72.5401 27.6221C72.6039 27.8787 72.6039 27.8787 72.7516 28.0093C72.7892 27.8946 72.8267 27.7799 72.8655 27.6617C73.046 27.111 73.2268 26.5605 73.4078 26.01C73.4415 25.9076 73.4752 25.8051 73.5099 25.6996C73.9641 24.319 74.4253 22.9412 74.8952 21.566C75.4993 19.7977 76.0803 18.0227 76.65 16.2428C77.1437 14.7013 77.6383 13.1606 78.1578 11.6278C78.2027 11.4941 78.2475 11.3603 78.2937 11.2225C78.355 11.0435 78.355 11.0435 78.4176 10.8608C78.4523 10.759 78.487 10.6572 78.5227 10.5523C78.6266 10.3081 78.6266 10.3081 78.8766 10.0553C79.1763 10.024 79.1763 10.024 79.557 10.0245C79.6993 10.0242 79.8415 10.0238 79.988 10.0234C80.1422 10.0243 80.2963 10.0252 80.4552 10.0261C80.6914 10.0262 80.6914 10.0262 80.9325 10.0263C81.2659 10.0267 81.5993 10.0275 81.9327 10.0292C82.3609 10.0314 82.7891 10.0319 83.2173 10.0318C83.6247 10.0318 84.0321 10.0329 84.4396 10.034C84.6712 10.0342 84.6712 10.0342 84.9075 10.0344C85.1203 10.0357 85.1203 10.0357 85.3373 10.0369C85.4628 10.0374 85.5884 10.0379 85.7177 10.0383C86.0016 10.0553 86.0016 10.0553 86.1266 10.1817C86.1391 10.4885 86.1434 10.7916 86.1424 11.0984C86.1426 11.1955 86.1428 11.2926 86.143 11.3926C86.1435 11.7205 86.1431 12.0483 86.1427 12.3761C86.1429 12.6101 86.1431 12.8441 86.1434 13.0781C86.144 13.7154 86.1438 14.3528 86.1434 14.9902C86.1431 15.6557 86.1433 16.3212 86.1435 16.9867C86.1438 18.1044 86.1435 19.2222 86.1429 20.34C86.1422 21.6343 86.1424 22.9285 86.1431 24.2228C86.1437 25.3319 86.1437 26.441 86.1434 27.5501C86.1432 28.2135 86.1432 28.8768 86.1436 29.5402C86.144 30.1637 86.1437 30.7872 86.143 31.4106C86.1428 31.6402 86.1429 31.8697 86.1432 32.0992C86.1435 32.4112 86.1431 32.7231 86.1424 33.035C86.1427 33.1271 86.143 33.2191 86.1433 33.3139C86.1408 33.9374 86.1408 33.9374 86.0016 34.0782C85.6607 34.091 85.323 34.0959 84.982 34.095C84.8288 34.0952 84.8288 34.0952 84.6724 34.0954C84.4559 34.0955 84.2395 34.0953 84.023 34.0947C83.6905 34.094 83.358 34.0947 83.0255 34.0955C82.8157 34.0954 82.6059 34.0953 82.3961 34.095C82.296 34.0953 82.1958 34.0955 82.0927 34.0958C81.3909 34.0928 81.3909 34.0928 81.2516 33.9518C81.238 33.7375 81.2332 33.5226 81.2318 33.3078C81.23 33.0985 81.23 33.0985 81.2281 32.885C81.2274 32.7305 81.2267 32.5761 81.2259 32.417C81.2247 32.2554 81.2234 32.0939 81.2222 31.9274C81.2188 31.4831 81.2161 31.0387 81.2137 30.5944C81.2109 30.1305 81.2075 29.6666 81.2042 29.2027C81.1979 28.3237 81.1923 27.4447 81.1869 26.5657C81.1807 25.5653 81.1739 24.5648 81.1669 23.5643C81.1527 21.5057 81.1394 19.4472 81.1266 17.3886C81.0737 17.5443 81.0737 17.5443 81.0198 17.7031C80.8866 18.095 80.7533 18.4869 80.62 18.8788C80.5627 19.0471 80.5055 19.2154 80.4484 19.3838C80.1005 20.4081 79.7467 21.4297 79.3766 22.4461C78.9378 23.6553 78.5216 24.8717 78.1088 26.0903C77.6903 27.3234 77.2583 28.5513 76.8209 29.7777C76.4536 30.8123 76.1049 31.852 75.782 32.9018C75.7502 33.002 75.7184 33.1023 75.6857 33.2055C75.6455 33.3356 75.6455 33.3356 75.6046 33.4683C75.4816 33.7436 75.3564 33.8852 75.1266 34.0782C74.744 34.1144 74.3874 34.1284 74.005 34.1242C73.8951 34.1242 73.7853 34.1243 73.6721 34.1244C73.44 34.1241 73.2079 34.1228 72.9758 34.1207C72.6197 34.1178 72.2637 34.1181 71.9076 34.119C71.6822 34.1183 71.4569 34.1174 71.2316 34.1163C71.1247 34.1164 71.0178 34.1165 70.9076 34.1166C70.1555 34.1075 70.1555 34.1075 69.8766 33.8254C69.7883 33.5936 69.7097 33.358 69.6359 33.1211C69.5887 32.9712 69.5415 32.8213 69.4928 32.6668C69.4677 32.5856 69.4425 32.5044 69.4166 32.4208C69.3359 32.1606 69.2543 31.9008 69.1724 31.641C69.0841 31.3606 68.9958 31.0802 68.9078 30.7998C68.5534 29.6704 68.1918 28.5435 67.8297 27.4166C67.7957 27.3107 67.7617 27.2047 67.7266 27.0955C67.1699 25.3614 66.6039 23.6305 66.0292 21.9024C65.5457 20.4444 65.0878 18.9812 64.6266 17.515C64.5853 22.9392 64.5441 28.3633 64.5016 33.9518C64.0995 34.1551 63.6614 34.0962 63.2198 34.095C63.1178 34.0952 63.0158 34.0953 62.9107 34.0954C62.695 34.0955 62.4793 34.0953 62.2636 34.0947C61.9322 34.094 61.6008 34.0947 61.2694 34.0955C61.0602 34.0954 60.8509 34.0953 60.6417 34.095C60.542 34.0953 60.4422 34.0955 60.3395 34.0958C59.6409 34.0928 59.6409 34.0928 59.5016 33.9518C59.4891 33.645 59.4848 33.3419 59.4857 33.035C59.4855 32.938 59.4853 32.8409 59.4851 32.7408C59.4846 32.413 59.485 32.0852 59.4854 31.7574C59.4852 31.5234 59.485 31.2894 59.4847 31.0554C59.4842 30.418 59.4844 29.7807 59.4848 29.1433C59.4851 28.4778 59.4848 27.8123 59.4846 27.1468C59.4844 26.0291 59.4847 24.9113 59.4853 23.7935C59.486 22.4992 59.4857 21.205 59.4851 19.9107C59.4845 18.8016 59.4844 17.6925 59.4847 16.5834C59.4849 15.92 59.485 15.2567 59.4845 14.5933C59.4842 13.9698 59.4844 13.3463 59.4852 12.7229C59.4853 12.4933 59.4853 12.2638 59.485 12.0343C59.4847 11.7223 59.4851 11.4104 59.4857 11.0984C59.4854 11.0064 59.4851 10.9144 59.4849 10.8196C59.4879 10.0553 59.5481 10.04 60.2889 10.0349Z" fill="#222222"/>
<path d="M140.079 10.0226C140.199 10.0189 140.319 10.0153 140.443 10.0115C140.993 9.99918 141.544 9.98982 142.095 9.98297C142.385 9.97833 142.675 9.97143 142.965 9.96223C143.384 9.94915 143.802 9.94353 144.221 9.93945C144.35 9.93397 144.479 9.92849 144.613 9.92285C145.493 9.92518 145.493 9.92518 145.864 10.2898C146.06 10.5825 146.221 10.8757 146.375 11.1929C146.451 11.3231 146.526 11.4533 146.604 11.5874C146.668 11.7051 146.731 11.8228 146.797 11.9442C146.87 12.0789 146.943 12.2136 147.019 12.3524C147.095 12.494 147.171 12.6355 147.25 12.7813C147.416 13.087 147.583 13.3923 147.75 13.6975C147.812 13.8125 147.812 13.8125 147.877 13.9298C148.284 14.6731 148.707 15.4072 149.133 16.1398C149.726 17.1603 150.306 18.1872 150.875 19.2217C151.583 20.5071 152.308 21.7806 153.044 23.0494C153.438 23.727 153.827 24.4069 154.216 25.087C154.279 25.198 154.343 25.309 154.408 25.4234C154.564 25.6952 154.72 25.9671 154.875 26.2389C154.875 26.1563 154.875 26.0736 154.875 25.9885C154.872 23.9805 154.87 21.9726 154.869 19.9646C154.868 18.9935 154.867 18.0225 154.866 17.0515C154.864 16.2054 154.864 15.3594 154.863 14.5133C154.863 14.0651 154.863 13.6168 154.862 13.1686C154.861 12.669 154.861 12.1694 154.861 11.6698C154.86 11.5201 154.86 11.3704 154.859 11.2162C154.86 11.0809 154.86 10.9456 154.86 10.8063C154.86 10.688 154.86 10.5697 154.86 10.4478C154.875 10.1815 154.875 10.1815 155 10.055C155.359 10.0422 155.715 10.0374 156.074 10.0382C156.236 10.038 156.236 10.038 156.401 10.0379C156.629 10.0378 156.857 10.038 157.085 10.0385C157.436 10.0392 157.787 10.0385 158.137 10.0377C158.358 10.0378 158.58 10.038 158.801 10.0382C158.906 10.038 159.012 10.0377 159.121 10.0375C159.861 10.0405 159.861 10.0405 160 10.1815C160.012 10.4882 160.017 10.7914 160.016 11.0982C160.016 11.1953 160.016 11.2924 160.016 11.3924C160.017 11.7202 160.017 12.048 160.016 12.3758C160.016 12.6098 160.017 12.8438 160.017 13.0778C160.017 13.7152 160.017 14.3526 160.017 14.99C160.016 15.6555 160.017 16.3209 160.017 16.9864C160.017 18.1042 160.017 19.222 160.016 20.3397C160.016 21.634 160.016 22.9283 160.017 24.2226C160.017 25.3317 160.017 26.4408 160.017 27.5499C160.017 28.2132 160.017 28.8766 160.017 29.5399C160.017 30.1634 160.017 30.7869 160.016 31.4104C160.016 31.6399 160.016 31.8695 160.017 32.099C160.017 32.4109 160.016 32.7229 160.016 33.0348C160.016 33.1268 160.016 33.2189 160.017 33.3137C160.014 33.9371 160.014 33.9371 159.875 34.078C159.704 34.0917 159.533 34.0968 159.362 34.0984C159.253 34.0996 159.144 34.1008 159.032 34.1021C158.854 34.1029 158.854 34.1029 158.673 34.1037C158.552 34.1044 158.431 34.1051 158.306 34.1059C158.05 34.1071 157.793 34.1079 157.536 34.1084C157.143 34.1096 156.75 34.1135 156.357 34.1175C156.108 34.1183 155.859 34.119 155.61 34.1195C155.492 34.1211 155.374 34.1226 155.253 34.1242C155.143 34.1238 155.033 34.1235 154.92 34.1231C154.824 34.1235 154.727 34.124 154.628 34.1245C154.306 34.0654 154.204 33.9526 154 33.6987C153.855 33.4659 153.717 33.2289 153.583 32.9895C153.502 32.846 153.422 32.7024 153.339 32.5546C153.252 32.3986 153.165 32.2426 153.078 32.0866C152.988 31.9253 152.897 31.7641 152.807 31.6029C152.579 31.197 152.352 30.7907 152.126 30.3842C151.943 30.0566 151.76 29.7292 151.577 29.4018C151.382 29.0521 151.186 28.7024 150.991 28.3525C150.463 27.4065 149.932 26.4628 149.398 25.5198C149.336 25.4088 149.336 25.4088 149.272 25.2955C148.845 24.5414 148.419 23.7875 147.992 23.0338C147.781 22.6614 147.57 22.2889 147.359 21.9164C147.278 21.7719 147.196 21.6274 147.112 21.4785C146.452 20.3112 145.802 19.1391 145.156 17.9639C145.088 17.84 145.02 17.7161 144.95 17.5884C144.89 17.4791 144.83 17.3699 144.768 17.2574C144.644 17.0172 144.644 17.0172 144.5 16.8826C144.483 21.1032 144.505 25.3219 144.562 29.5421C144.565 29.7073 144.565 29.7073 144.567 29.8758C144.586 31.2344 144.605 32.593 144.625 33.9516C144.211 34.1611 143.748 34.0959 143.293 34.0948C143.132 34.095 143.132 34.095 142.968 34.0952C142.741 34.0953 142.514 34.095 142.287 34.0945C141.939 34.0938 141.591 34.0945 141.243 34.0953C141.022 34.0952 140.802 34.095 140.582 34.0948C140.477 34.0951 140.373 34.0953 140.265 34.0956C139.529 34.0925 139.529 34.0925 139.25 33.9516C139.25 26.1074 139.25 18.2633 139.25 10.1815C139.548 10.0307 139.746 10.0325 140.079 10.0226Z" fill="#222222"/>
<path d="M215.667 10.0371C215.803 10.0369 215.938 10.0367 216.077 10.0364C216.52 10.0359 216.963 10.0362 217.406 10.0367C217.715 10.0366 218.024 10.0365 218.333 10.0363C218.979 10.0361 219.624 10.0364 220.269 10.037C221.098 10.0377 221.927 10.0373 222.756 10.0365C223.393 10.0361 224.03 10.0362 224.666 10.0365C224.972 10.0366 225.278 10.0365 225.584 10.0362C226.01 10.0359 226.435 10.0364 226.861 10.0371C227.052 10.0367 227.052 10.0367 227.246 10.0363C227.362 10.0367 227.477 10.037 227.595 10.0374C227.696 10.0375 227.796 10.0375 227.9 10.0376C228.129 10.0535 228.129 10.0535 228.254 10.1799C228.266 10.4972 228.271 10.8109 228.27 11.1282C228.27 11.2231 228.27 11.3181 228.271 11.4159C228.271 11.617 228.27 11.8181 228.27 12.0192C228.269 12.328 228.27 12.6369 228.271 12.9457C228.271 13.1406 228.27 13.3356 228.27 13.5305C228.27 13.6235 228.271 13.7164 228.271 13.8122C228.268 14.4642 228.268 14.4642 228.129 14.6052C227.956 14.6177 227.783 14.6215 227.609 14.6218C227.498 14.6223 227.386 14.6228 227.27 14.6233C227.084 14.6232 227.084 14.6232 226.895 14.6231C226.765 14.6236 226.636 14.624 226.502 14.6245C226.219 14.6254 225.936 14.6261 225.653 14.6265C225.205 14.6274 224.757 14.6294 224.309 14.6317C223.034 14.6384 221.759 14.6444 220.484 14.6464C219.705 14.6477 218.926 14.6514 218.147 14.6567C217.85 14.6582 217.554 14.6589 217.257 14.6586C216.841 14.6583 216.424 14.6611 216.008 14.6646C215.886 14.6638 215.765 14.6629 215.639 14.6621C214.762 14.6741 213.861 14.8214 213.172 15.4159C212.49 16.1988 212.448 16.9653 212.464 17.9691C212.528 18.6679 212.734 19.0441 213.261 19.5125C214.352 19.9583 215.526 19.9525 216.685 19.9541C216.962 19.9546 217.238 19.9567 217.514 19.9592C218.299 19.9662 219.084 19.9701 219.868 19.9732C220.351 19.9753 220.834 19.9791 221.317 19.9839C221.499 19.9854 221.68 19.9862 221.862 19.9862C223.88 19.9864 226.282 20.1698 227.879 21.5592C229.263 23.2595 229.68 25.4595 229.504 27.6282C229.238 29.5468 228.732 31.1361 227.222 32.4012C224.866 34.1182 221.845 34.0239 219.063 33.9994C218.742 33.9985 218.421 33.9977 218.1 33.9972C217.349 33.9955 216.598 33.9916 215.848 33.9864C214.991 33.9807 214.134 33.978 213.277 33.9755C211.519 33.9702 209.761 33.961 208.004 33.95C208.004 32.4897 208.004 31.0293 208.004 29.5247C208.576 29.521 208.576 29.521 209.16 29.5171C210.425 29.5086 211.69 29.4988 212.955 29.4884C213.722 29.4821 214.489 29.4762 215.255 29.4714C215.996 29.4667 216.737 29.4608 217.478 29.4542C217.759 29.4518 218.041 29.4499 218.322 29.4484C220.892 29.5628 220.892 29.5628 223.254 28.7661C223.81 28.1428 223.9 27.8001 223.91 26.9644C223.913 26.7994 223.916 26.6345 223.92 26.4646C223.876 25.9543 223.77 25.6576 223.504 25.2259C222.764 24.6276 222.07 24.4363 221.134 24.433C221.05 24.4323 220.966 24.4316 220.88 24.431C220.699 24.4297 220.519 24.4289 220.338 24.4287C220.05 24.4282 219.762 24.4261 219.475 24.4235C218.657 24.4166 217.839 24.4127 217.021 24.4096C216.519 24.4075 216.017 24.4037 215.515 24.3988C215.326 24.3974 215.137 24.3966 214.948 24.3966C212.602 24.3964 210.293 24.0324 208.496 22.3731C207.939 21.7921 207.647 21.177 207.379 20.4213C207.339 20.3158 207.299 20.2104 207.258 20.1017C206.618 18.0612 206.798 15.4222 207.669 13.4781C208.237 12.438 209.053 11.5616 210.129 11.065C210.219 11.0224 210.31 10.9799 210.404 10.9361C212.095 10.1995 213.847 10.0334 215.667 10.0371Z" fill="#222222"/>
<path d="M89.1248 10.1846C95.3535 10.1846 101.582 10.1846 108 10.1846C108 11.6032 108 13.0218 108 14.4834C107.875 14.6099 107.875 14.6099 107.651 14.6254C107.503 14.6252 107.503 14.6252 107.352 14.6251C107.183 14.6253 107.183 14.6253 107.01 14.6256C106.886 14.6251 106.761 14.6247 106.633 14.6242C106.502 14.6242 106.372 14.6242 106.237 14.6243C105.804 14.6242 105.37 14.6232 104.937 14.6222C104.637 14.622 104.337 14.6218 104.038 14.6217C103.247 14.6212 102.457 14.6199 101.666 14.6185C100.86 14.6172 100.054 14.6167 99.2481 14.616C97.6653 14.6147 96.0825 14.6124 94.4998 14.6099C94.4998 16.3205 94.4998 18.0312 94.4998 19.7938C98.9548 19.7938 103.41 19.7938 108 19.7938C108 21.2124 108 22.631 108 24.0926C107.875 24.2191 107.875 24.2191 107.651 24.2346C107.503 24.2344 107.503 24.2344 107.352 24.2343C107.183 24.2345 107.183 24.2345 107.01 24.2348C106.886 24.2343 106.761 24.2339 106.633 24.2334C106.502 24.2334 106.372 24.2334 106.237 24.2335C105.804 24.2334 105.37 24.2324 104.937 24.2314C104.637 24.2312 104.337 24.231 104.038 24.2309C103.247 24.2304 102.457 24.2291 101.666 24.2277C100.86 24.2264 100.054 24.2259 99.2481 24.2252C97.6653 24.2239 96.0825 24.2216 94.4998 24.2191C94.4998 26.0132 94.4998 27.8073 94.4998 29.6558C98.9548 29.6558 103.41 29.6558 108 29.6558C108 31.0745 108 32.4931 108 33.9547C107.778 34.1793 107.454 34.0971 107.153 34.0972C106.918 34.0977 106.918 34.0977 106.679 34.0983C106.503 34.098 106.328 34.0978 106.153 34.0975C105.97 34.0977 105.786 34.0979 105.603 34.0982C105.104 34.0987 104.604 34.0985 104.105 34.0981C103.584 34.0978 103.063 34.0981 102.541 34.0983C101.666 34.0985 100.79 34.0982 99.9147 34.0976C98.901 34.0969 97.8873 34.0971 96.8735 34.0978C96.0048 34.0984 95.136 34.0985 94.2672 34.0982C93.7476 34.098 93.228 34.0979 92.7084 34.0984C92.2201 34.0987 91.7317 34.0985 91.2433 34.0977C91.0636 34.0976 90.8839 34.0976 90.7041 34.0979C90.4597 34.0982 90.2154 34.0977 89.971 34.0972C89.7654 34.0971 89.7654 34.0971 89.5557 34.097C89.2498 34.0811 89.2498 34.0811 89.1248 33.9547C89.1126 33.6476 89.1085 33.3442 89.1097 33.0371C89.1096 32.9399 89.1095 32.8427 89.1094 32.7426C89.1092 32.4145 89.1099 32.0864 89.1106 31.7583C89.1106 31.5241 89.1106 31.2899 89.1105 31.0557C89.1105 30.4178 89.1112 29.7799 89.1121 29.142C89.1129 28.4761 89.1129 27.8102 89.1131 27.1444C89.1135 25.8825 89.1145 24.6206 89.1158 23.3588C89.1174 21.6543 89.1181 19.9498 89.1188 18.2453C89.12 15.5584 89.1225 12.8715 89.1248 10.1846Z" fill="#222222"/>
<path d="M187.125 10.1846C193.354 10.1846 199.582 10.1846 206 10.1846C206 11.6032 206 13.0218 206 14.4834C205.875 14.6099 205.875 14.6099 205.651 14.6254C205.503 14.6252 205.503 14.6252 205.352 14.6251C205.183 14.6253 205.183 14.6253 205.01 14.6256C204.886 14.6251 204.761 14.6247 204.633 14.6242C204.502 14.6242 204.372 14.6242 204.237 14.6243C203.804 14.6242 203.37 14.6232 202.937 14.6222C202.637 14.622 202.337 14.6218 202.038 14.6217C201.247 14.6212 200.457 14.6199 199.666 14.6185C198.86 14.6172 198.054 14.6167 197.248 14.616C195.665 14.6147 194.083 14.6124 192.5 14.6099C192.5 16.3205 192.5 18.0312 192.5 19.7938C196.955 19.7938 201.41 19.7938 206 19.7938C206 21.2124 206 22.631 206 24.0926C205.875 24.2191 205.875 24.2191 205.651 24.2346C205.503 24.2344 205.503 24.2344 205.352 24.2343C205.183 24.2345 205.183 24.2345 205.01 24.2348C204.886 24.2343 204.761 24.2339 204.633 24.2334C204.502 24.2334 204.372 24.2334 204.237 24.2335C203.804 24.2334 203.37 24.2324 202.937 24.2314C202.637 24.2312 202.337 24.231 202.038 24.2309C201.247 24.2304 200.457 24.2291 199.666 24.2277C198.86 24.2264 198.054 24.2259 197.248 24.2252C195.665 24.2239 194.083 24.2216 192.5 24.2191C192.5 26.0132 192.5 27.8073 192.5 29.6558C196.955 29.6558 201.41 29.6558 206 29.6558C206 31.0745 206 32.4931 206 33.9547C205.661 34.1259 205.397 34.097 205.018 34.0972C204.784 34.0977 204.784 34.0977 204.546 34.0983C204.372 34.098 204.199 34.0978 204.025 34.0975C203.843 34.0977 203.661 34.0979 203.479 34.0982C202.984 34.0987 202.488 34.0985 201.993 34.0981C201.475 34.0978 200.958 34.0981 200.441 34.0983C199.572 34.0985 198.703 34.0982 197.834 34.0976C196.828 34.0969 195.822 34.0971 194.816 34.0978C193.953 34.0984 193.091 34.0985 192.228 34.0982C191.713 34.098 191.197 34.0979 190.681 34.0984C190.197 34.0987 189.712 34.0985 189.228 34.0977C189.049 34.0976 188.871 34.0976 188.693 34.0979C188.45 34.0982 188.208 34.0977 187.965 34.0972C187.829 34.0971 187.693 34.0971 187.553 34.097C187.25 34.0811 187.25 34.0811 187.125 33.9547C187.113 33.6476 187.109 33.3442 187.11 33.0371C187.11 32.9399 187.11 32.8427 187.109 32.7426C187.109 32.4145 187.11 32.0864 187.111 31.7583C187.111 31.5241 187.111 31.2899 187.111 31.0557C187.11 30.4178 187.111 29.7799 187.112 29.142C187.113 28.4761 187.113 27.8102 187.113 27.1444C187.113 25.8825 187.115 24.6206 187.116 23.3588C187.117 21.6543 187.118 19.9498 187.119 18.2453C187.12 15.5584 187.122 12.8715 187.125 10.1846Z" fill="#222222"/>
<path d="M9.1959 14.8025C9.29596 14.8631 9.39603 14.9238 9.49912 14.9862C9.61079 15.0469 9.72245 15.1075 9.8375 15.17C9.9656 15.2449 10.0937 15.3199 10.2257 15.3971C10.298 15.4393 10.3702 15.4815 10.4447 15.5249C10.7132 15.6819 10.9812 15.8398 11.2491 15.9977C11.3681 16.0678 11.487 16.1379 11.6096 16.2101C12.1379 16.5215 12.6662 16.833 13.1941 17.1452C13.8357 17.5245 14.478 17.9022 15.1241 18.2736C14.9551 18.7864 14.7197 18.8605 14.2647 19.1349C14.1906 19.1799 14.1165 19.2248 14.0401 19.2711C13.5075 19.5917 12.9663 19.8944 12.42 20.1904C11.8221 20.5208 11.2311 20.8632 10.6397 21.2053C10.5252 21.2715 10.4106 21.3378 10.2926 21.406C9.77505 21.7057 9.2598 22.008 8.74912 22.3196C9.29008 22.5369 9.82167 22.7251 10.3858 22.8707C10.4965 22.8998 10.6072 22.9288 10.7213 22.9587C10.9477 23.0171 11.1746 23.0738 11.402 23.1286C12.5953 23.4483 13.2198 24.0386 13.8521 25.1012C14.0152 25.3953 14.1761 25.6899 14.3351 25.9862C14.4211 26.1435 14.5073 26.3007 14.5936 26.4578C14.7253 26.6976 14.8568 26.9374 14.9874 27.1777C15.2703 27.6976 15.562 28.211 15.8605 28.7219C15.9354 28.8514 16.0104 28.9809 16.0877 29.1143C16.2277 29.3558 16.3691 29.5965 16.5119 29.8364C17.1133 30.8869 17.2244 31.5926 16.9449 32.7778C16.8634 33.0827 16.7799 33.3871 16.6944 33.691C16.6111 33.9976 16.5279 34.3043 16.4449 34.6111C16.3887 34.8128 16.3887 34.8128 16.3314 35.0185C16.2388 35.3276 16.2388 35.3276 16.2491 35.5954C18.4165 34.3784 18.4165 34.3784 20.5616 33.122C20.6465 33.0712 20.7313 33.0204 20.8187 32.968C20.899 32.9199 20.9794 32.8718 21.0621 32.8222C21.4326 32.6003 21.8042 32.3807 22.1788 32.1658C22.2611 32.1186 22.3435 32.0713 22.4283 32.0226C22.6241 31.9288 22.6241 31.9288 22.8741 31.9288C22.9119 32.8673 22.9407 33.8056 22.9583 34.7448C22.9668 35.181 22.9782 35.6167 22.9967 36.0526C23.1128 38.8616 23.1128 38.8616 22.7241 39.5138C22.3061 39.9362 21.8032 40.1048 21.2491 40.2736C21.0826 40.3633 20.9182 40.4575 20.7584 40.5591C20.6187 40.637 20.479 40.7149 20.3351 40.7951C19.2075 41.4292 18.095 42.089 16.9815 42.748C16.8617 42.8184 16.7419 42.8888 16.6184 42.9614C16.3622 43.1142 16.1078 43.2704 15.8552 43.4293C14.6292 44.1892 14.6292 44.1892 13.8507 44.1694C13.7149 44.1702 13.579 44.171 13.4391 44.1719C12.8141 44.0225 12.3836 43.6933 11.8741 43.3081C11.779 43.2361 11.6838 43.1642 11.5858 43.0901C11.2969 42.8678 11.0109 42.6421 10.7257 42.4151C10.6297 42.3394 10.5338 42.2637 10.4349 42.1857C10.1636 41.971 9.89361 41.7549 9.62412 41.538C9.54835 41.4776 9.47258 41.4172 9.39451 41.3549C8.93416 40.9801 8.73959 40.7428 8.62412 40.1471C8.57659 39.3101 8.72817 38.6144 8.95322 37.8115C9.00466 37.622 9.00466 37.622 9.05713 37.4286C9.16681 37.0253 9.27821 36.6225 9.38975 36.2197C9.49777 35.8253 9.60543 35.4307 9.71304 35.0361C9.7845 34.7743 9.85614 34.5125 9.92796 34.2508C10.2188 33.1884 10.4955 32.1226 10.7652 31.0545C10.7942 30.9403 10.8232 30.8262 10.8531 30.7086C10.8784 30.6082 10.9037 30.5077 10.9297 30.4043C10.9991 30.1586 10.9991 30.1586 11.1241 29.9058C11.0498 29.8918 10.9754 29.8778 10.8988 29.8633C10.0902 29.7061 9.29924 29.5071 8.50547 29.2864C8.37851 29.2515 8.25155 29.2166 8.12074 29.1806C7.71811 29.0697 7.31565 28.9583 6.91319 28.8469C6.51394 28.7367 6.11466 28.6267 5.71537 28.5167C5.4575 28.4456 5.19966 28.3744 4.94185 28.303C4.39011 28.1505 3.83825 27.9988 3.2848 27.8527C3.19803 27.8298 3.11127 27.8068 3.02188 27.7832C2.79922 27.7245 2.57639 27.6665 2.35355 27.6086C1.59487 27.3836 1.0668 27.0455 0.624122 26.3655C-0.0247449 25.0171 -0.0356679 23.1852 -0.0711901 21.7111C-0.0760442 21.6094 -0.0808983 21.5077 -0.0858996 21.4029C-0.0897554 20.5931 0.200429 20.1157 0.749122 19.538C1.12863 19.2134 1.50755 18.9642 1.95322 18.7408C2.49549 18.4646 3.01963 18.1605 3.546 17.8548C3.71522 17.7567 3.71522 17.7567 3.88786 17.6567C5.04538 16.9848 6.19777 16.304 7.34971 15.6224C7.46214 15.5567 7.57457 15.491 7.69041 15.4233C7.88224 15.3088 8.07198 15.1906 8.25803 15.0667C8.79523 14.7164 8.79523 14.7164 9.1959 14.8025Z" fill="#EA5708"/>
<path d="M15.6964 -0.013526C15.8255 -0.0177636 15.9545 -0.0220012 16.0875 -0.0263672C17.2639 0.234935 18.1471 1.44461 18.9659 2.2811C19.1046 2.42181 19.2433 2.56246 19.382 2.70306C19.7442 3.07041 20.1057 3.4385 20.467 3.80677C20.837 4.18357 21.2076 4.55965 21.5782 4.93578C22.3032 5.6718 23.0274 6.40862 23.7511 7.14596C24.2322 6.94591 24.5334 6.63651 24.8966 6.26485C24.9906 6.16921 24.9906 6.16921 25.0865 6.07165C25.2221 5.93353 25.3574 5.79513 25.4924 5.65647C25.7063 5.43696 25.9209 5.21825 26.1357 4.99974C26.5915 4.53577 27.0464 4.07082 27.5011 3.60573C28.0281 3.06671 28.5555 2.52809 29.0839 1.99054C29.2952 1.77519 29.5057 1.55909 29.7162 1.34295C29.846 1.2108 29.9758 1.07868 30.1056 0.946603C30.2184 0.831129 30.3313 0.715654 30.4476 0.59668C31.0691 0.0267937 31.5847 -0.00557584 32.4064 0.00802016C33.1998 0.105103 33.8938 0.406914 34.6199 0.733025C34.8779 0.848657 35.1377 0.959254 35.3981 1.06934C36.4319 1.51782 37.2235 1.87146 37.6736 2.98098C37.8012 3.38524 37.8095 3.78847 37.8115 4.20856C37.8134 4.30242 37.8152 4.39629 37.8172 4.493C37.8226 4.80063 37.8252 5.10818 37.8273 5.41585C37.8288 5.57432 37.8288 5.57432 37.8305 5.736C37.8361 6.29434 37.8395 6.85265 37.8412 7.41102C37.8432 7.98666 37.8523 8.56196 37.8629 9.13749C37.8699 9.58147 37.8718 10.0254 37.8724 10.4694C37.8736 10.6816 37.8766 10.8938 37.8815 11.1059C37.9172 12.7568 37.9172 12.7568 37.519 13.2488C37.2287 13.4485 36.9507 13.587 36.6261 13.7207C36.4947 13.8012 36.3632 13.8818 36.2278 13.9648C36.1087 14.0339 35.9895 14.1029 35.8668 14.1741C35.7326 14.2521 35.5983 14.3302 35.46 14.4106C35.3215 14.4906 35.1829 14.5707 35.0401 14.6531C34.8955 14.737 34.7509 14.8209 34.6063 14.9048C34.3241 15.0685 34.0417 15.232 33.7593 15.3954C33.4322 15.5847 33.1057 15.7748 32.7794 15.9654C32.6215 16.0575 32.4637 16.1495 32.3058 16.2415C32.1741 16.3183 32.0425 16.395 31.9068 16.4741C31.6261 16.6287 31.6261 16.6287 31.5011 16.6287C31.4598 14.0418 31.4186 11.4549 31.3761 8.78964C31.1698 8.99826 30.9636 9.20688 30.7511 9.42182C29.423 10.7652 29.423 10.7652 29.2037 10.985C29.0247 11.1679 28.8522 11.3573 28.6808 11.5475C28.1417 12.0369 27.5628 12.1085 26.8569 12.1137C26.7075 12.1153 26.5581 12.117 26.4042 12.1186C26.1645 12.119 26.1645 12.119 25.92 12.1195C25.7525 12.1203 25.5851 12.1211 25.4176 12.122C25.0673 12.1235 24.717 12.124 24.3667 12.1238C23.92 12.1238 23.4735 12.1273 23.0269 12.1316C22.6811 12.1345 22.3354 12.135 21.9896 12.1348C21.7457 12.1353 21.5017 12.138 21.2577 12.1408C21.1075 12.14 20.9574 12.1392 20.8027 12.1384C20.6062 12.139 20.6062 12.139 20.4058 12.1395C18.6137 11.8627 17.5536 10.1071 16.3761 8.91607C16.3348 11.4612 16.2936 14.0064 16.2511 16.6287C15.7828 16.5103 15.4916 16.3708 15.0792 16.1284C14.9468 16.0509 14.8144 15.9734 14.6781 15.8936C14.4667 15.7685 14.4667 15.7685 14.2511 15.6409C14.1056 15.5554 13.9601 15.4698 13.8146 15.3843C10.1209 13.2097 10.1209 13.2097 9.87609 12.962C9.86164 12.6734 9.85612 12.3843 9.85396 12.0953C9.85314 12.0046 9.85232 11.9139 9.85147 11.8205C9.849 11.5188 9.84754 11.2171 9.8463 10.9154C9.84554 10.7607 9.84554 10.7607 9.84476 10.603C9.84214 10.0565 9.84036 9.51003 9.83919 8.96355C9.83781 8.4008 9.83352 7.83812 9.82854 7.27539C9.82526 6.8415 9.82423 6.40762 9.82378 5.97371C9.82317 5.76644 9.82173 5.55917 9.8194 5.35191C9.7947 3.00468 9.7947 3.00468 10.5745 2.11497C11.1188 1.57555 11.7808 1.32243 12.4855 1.06119C12.6988 0.979419 12.912 0.897433 13.1251 0.815228C13.2294 0.775643 13.3337 0.736058 13.4412 0.695273C13.7477 0.57258 14.0434 0.435027 14.3414 0.292688C14.8015 0.0832432 15.1859 -0.00964847 15.6964 -0.013526Z" fill="#EA5708"/>
<path d="M39.3704 15.1143C39.6921 15.2747 39.6921 15.2747 40.0369 15.4793C40.1662 15.5554 40.2955 15.6315 40.4287 15.71C40.6357 15.8337 40.6357 15.8337 40.847 15.9599C40.9917 16.0455 41.1364 16.131 41.2812 16.2165C41.5799 16.393 41.8783 16.57 42.1766 16.7474C42.5984 16.9981 43.0214 17.2468 43.4446 17.4949C44.0656 17.8591 44.6854 18.2253 45.3041 18.5933C45.5017 18.7105 45.6995 18.8274 45.8976 18.9436C47.6988 20 47.6988 20 48.0152 21.0161C48.1405 21.5559 48.1102 22.0491 48.0301 22.5939C48.0173 22.6883 48.0046 22.7827 47.9915 22.8799C47.9641 23.0781 47.9358 23.2761 47.9066 23.4741C47.8628 23.7741 47.8236 24.0746 47.7847 24.3753C47.509 26.3884 47.509 26.3884 46.8704 26.9994C46.1958 27.4888 45.3646 27.6781 44.5736 27.8924C44.4444 27.9283 44.3152 27.9641 44.1821 28.0011C43.2547 28.2567 42.3248 28.5022 41.3948 28.7478C41.2773 28.7788 41.1598 28.8099 41.0387 28.8419C40.4456 28.9985 39.8524 29.1544 39.2589 29.3091C39.0376 29.3671 38.8163 29.4252 38.595 29.4832C38.4933 29.5095 38.3916 29.5358 38.2868 29.5629C37.7992 29.6911 37.3335 29.8291 36.8704 30.0339C37.0237 30.6398 37.1774 31.2457 37.3314 31.8514C37.3542 31.9414 37.3771 32.0314 37.4007 32.1242C37.6817 33.2288 37.9698 34.3307 38.2788 35.4276C38.5186 36.2901 38.7203 37.1614 38.9191 38.0343C38.9436 38.1414 38.9682 38.2486 38.9935 38.359C39.015 38.4544 39.0366 38.5498 39.0588 38.6481C39.1143 38.8936 39.1143 38.8936 39.2454 39.1373C39.2992 39.8303 39.1955 40.2952 38.8704 40.9075C38.4242 41.3957 37.9352 41.8056 37.4173 42.2113C37.3413 42.2713 37.2653 42.3312 37.187 42.393C34.8061 44.2618 34.8061 44.2618 33.2454 44.0684C32.7047 43.8581 32.2381 43.5647 31.7532 43.2465C31.4909 43.0828 31.2285 42.9192 30.9661 42.7556C30.8418 42.6763 30.7175 42.5971 30.5894 42.5154C30.1611 42.245 29.7253 41.994 29.2845 41.7451C28.599 41.3513 27.9293 40.9351 27.2601 40.5138C26.7785 40.219 26.2863 39.9486 25.7879 39.6841C25.4915 39.5144 25.2447 39.3731 24.9954 39.1373C24.9353 38.8229 24.9353 38.8229 24.9387 38.4443C24.9387 38.3026 24.9387 38.1609 24.9388 38.0148C24.9414 37.8619 24.9439 37.709 24.9466 37.5514C24.9473 37.3948 24.948 37.2382 24.9487 37.0768C24.9511 36.6609 24.9556 36.245 24.9611 35.8291C24.9662 35.4045 24.9685 34.9799 24.971 34.5552C24.9765 33.7224 24.9849 32.8897 24.9954 32.0569C25.3928 32.1326 25.7153 32.2086 26.0682 32.41C26.1523 32.4576 26.2365 32.5052 26.3232 32.5542C26.4135 32.6065 26.5039 32.6588 26.597 32.7128C26.6928 32.7674 26.7885 32.822 26.8872 32.8783C28.0004 33.5162 29.1042 34.171 30.2078 34.8256C30.7184 35.1285 31.2307 35.4279 31.7454 35.7235C31.7189 35.6261 31.6924 35.5286 31.6651 35.4282C31.5446 34.9818 31.4262 34.5348 31.3079 34.0878C31.2662 33.9345 31.2245 33.7812 31.1815 33.6233C30.8667 32.4244 30.628 31.4833 31.2298 30.35C31.2688 30.2757 31.3077 30.2014 31.3479 30.1248C31.4771 29.8818 31.6105 29.6415 31.7454 29.4017C31.8147 29.2784 31.8147 29.2784 31.8854 29.1527C32.2471 28.5141 32.6206 27.883 32.9954 27.2523C33.1289 27.0268 33.2624 26.8012 33.3958 26.5756C34.1082 25.3724 34.1082 25.3724 34.3489 24.9757C34.5079 24.7132 34.5079 24.7132 34.6483 24.3739C35.326 23.512 36.6133 23.2915 37.6204 23.0483C37.8757 22.9846 38.1309 22.9207 38.3861 22.8566C38.4972 22.8295 38.6084 22.8024 38.723 22.7745C38.9984 22.7096 38.9984 22.7096 39.2454 22.5741C39.1676 22.5284 39.0899 22.4828 39.0097 22.4357C37.5204 21.5606 36.0336 20.6818 34.5593 19.781C34.0004 19.4399 33.4385 19.1061 32.8704 18.781C32.8704 18.6558 32.8704 18.5307 32.8704 18.4017C33.0026 18.3272 33.0026 18.3272 33.1375 18.2513C33.5434 18.0224 33.9491 17.7932 34.3548 17.5641C34.5627 17.447 34.5627 17.447 34.7747 17.3275C35.7545 16.7736 36.7242 16.2065 37.6736 15.6008C37.7927 15.5263 37.9118 15.4519 38.0345 15.3751C38.1552 15.2984 38.2759 15.2216 38.4002 15.1425C38.8141 14.9571 38.9422 14.9911 39.3704 15.1143Z" fill="#EA5708"/>
<path d="M161.124 10.0544C161.901 10.0419 162.677 10.0327 163.453 10.0266C163.718 10.0241 163.982 10.0206 164.246 10.0162C164.625 10.0101 165.005 10.0072 165.384 10.005C165.562 10.0011 165.562 10.0011 165.743 9.99709C166.557 9.99681 166.557 9.99681 166.871 10.2672C166.913 10.3639 166.956 10.4605 166.999 10.5601C167.047 10.6665 167.095 10.7728 167.144 10.8823C167.19 11.0039 167.236 11.1254 167.284 11.2506C167.363 11.4584 167.363 11.4584 167.445 11.6703C167.501 11.8203 167.558 11.9703 167.616 12.1248C167.708 12.3649 167.8 12.6048 167.892 12.8448C167.956 13.0114 168.02 13.1781 168.084 13.3448C168.421 14.2263 168.768 15.1038 169.116 15.9811C169.179 16.1399 169.242 16.2986 169.305 16.4574C169.431 16.7767 169.558 17.096 169.685 17.4153C169.967 18.1279 170.249 18.8409 170.531 19.5538C170.655 19.8672 170.779 20.1806 170.903 20.494C171.161 21.1479 171.42 21.8019 171.678 22.456C171.812 22.7972 171.947 23.1383 172.082 23.4794C172.175 23.7164 172.269 23.9535 172.362 24.1906C172.693 25.0286 173.032 25.8618 173.387 26.6897C173.499 26.9969 173.499 26.9969 173.499 27.3762C173.582 27.3762 173.664 27.3762 173.749 27.3762C173.763 27.2902 173.776 27.2042 173.79 27.1155C173.89 26.6754 174.049 26.2725 174.221 25.8575C174.256 25.7719 174.291 25.6862 174.327 25.598C174.441 25.3186 174.556 25.0396 174.671 24.7606C174.751 24.5665 174.83 24.3724 174.91 24.1783C175.5 22.7382 176.1 21.3021 176.702 19.8671C177.018 19.1146 177.327 18.3594 177.633 17.6031C178.018 16.6533 178.406 15.7051 178.795 14.7569C178.827 14.6788 178.859 14.6006 178.892 14.52C178.957 14.362 179.021 14.204 179.086 14.046C179.305 13.5111 179.523 12.9756 179.74 12.4399C179.852 12.1636 179.965 11.8874 180.077 11.6111C180.155 11.4186 180.155 11.4186 180.234 11.2222C180.306 11.0463 180.306 11.0463 180.379 10.8668C180.441 10.7131 180.441 10.7131 180.505 10.5563C180.624 10.3073 180.624 10.3073 180.874 10.0544C181.26 10.0322 181.634 10.0252 182.02 10.0297C182.19 10.0302 182.19 10.0302 182.363 10.0308C182.726 10.0322 183.089 10.0354 183.452 10.0386C183.698 10.0399 183.944 10.041 184.19 10.042C184.793 10.0448 185.396 10.0492 185.999 10.0544C186.135 10.524 186.095 10.726 185.897 11.1775C185.844 11.3019 185.79 11.4264 185.735 11.5546C185.645 11.7586 185.645 11.7586 185.554 11.9667C185.425 12.2659 185.297 12.5652 185.169 12.8646C185.118 12.9832 185.118 12.9832 185.066 13.1041C184.664 14.0419 184.281 14.9878 183.898 15.9337C183.824 16.116 183.749 16.2983 183.675 16.4806C183.525 16.8503 183.375 17.2201 183.225 17.5899C182.602 19.1243 181.977 20.6578 181.353 22.1913C181.284 22.3586 181.216 22.5259 181.148 22.6931C180.394 24.5444 179.633 26.3926 178.859 28.2351C178.461 29.1832 178.079 30.1367 177.705 31.0943C177.447 31.7526 177.174 32.4008 176.875 33.0417C176.782 33.246 176.697 33.4537 176.615 33.663C176.499 33.9509 176.499 33.9509 176.374 34.0774C176.009 34.0933 175.647 34.1012 175.281 34.1031C175.116 34.1041 175.116 34.1041 174.948 34.1052C174.715 34.1064 174.482 34.1073 174.249 34.1077C173.892 34.109 173.535 34.1129 173.178 34.1169C172.952 34.1177 172.726 34.1184 172.5 34.1189C172.34 34.1212 172.34 34.1212 172.176 34.1236C172.076 34.1232 171.976 34.1228 171.874 34.1224C171.742 34.1231 171.742 34.1231 171.608 34.1238C171.3 34.0627 171.195 33.9417 170.999 33.6981C170.867 33.4427 170.745 33.1822 170.628 32.9192C170.593 32.8417 170.559 32.7642 170.523 32.6843C170.41 32.43 170.298 32.175 170.187 31.92C170.108 31.742 170.029 31.5641 169.95 31.3861C169.408 30.1581 168.884 28.9228 168.37 27.6825C167.936 26.6342 167.487 25.593 167.032 24.5534C166.579 23.5156 166.132 22.4752 165.687 21.4337C165.19 20.273 164.691 19.1136 164.187 17.9567C163.601 16.6139 163.022 15.2683 162.447 13.9204C162.161 13.2482 161.873 12.5766 161.572 11.9109C161.509 11.7692 161.509 11.7692 161.444 11.6245C161.337 11.3887 161.229 11.1537 161.121 10.9187C160.991 10.536 161.011 10.4254 161.124 10.0544Z" fill="#222222"/>
<path d="M110.271 10.0372C110.353 10.037 110.434 10.0368 110.518 10.0366C110.794 10.0361 111.069 10.0365 111.345 10.0369C111.541 10.0367 111.738 10.0365 111.935 10.0362C112.47 10.0356 113.006 10.0359 113.542 10.0363C114.101 10.0366 114.66 10.0363 115.22 10.0361C116.16 10.0359 117.099 10.0362 118.039 10.0368C119.127 10.0374 120.215 10.0372 121.302 10.0365C122.235 10.036 123.167 10.0359 124.099 10.0362C124.657 10.0364 125.214 10.0364 125.772 10.036C126.296 10.0356 126.82 10.0359 127.345 10.0366C127.537 10.0368 127.73 10.0367 127.923 10.0365C128.185 10.0361 128.448 10.0366 128.71 10.0372C128.857 10.0372 129.004 10.0373 129.156 10.0373C129.499 10.0532 129.499 10.0532 129.749 10.1797C129.749 11.64 129.749 13.1004 129.749 14.605C127.191 14.605 124.634 14.605 121.999 14.605C121.999 20.9888 121.999 27.3725 121.999 33.9498C121.591 34.156 121.142 34.0941 120.694 34.093C120.589 34.0931 120.485 34.0933 120.377 34.0934C120.156 34.0935 119.935 34.0932 119.714 34.0927C119.375 34.092 119.036 34.0927 118.697 34.0935C118.482 34.0934 118.268 34.0933 118.053 34.093C117.9 34.0934 117.9 34.0934 117.745 34.0938C117.027 34.0908 117.027 34.0908 116.749 33.9498C116.749 27.566 116.749 21.1822 116.749 14.605C114.315 14.605 111.881 14.605 109.374 14.605C109.371 13.8774 109.368 13.1498 109.366 12.4002C109.365 12.1703 109.363 11.9405 109.362 11.7036C109.362 11.5224 109.362 11.3412 109.361 11.1601C109.361 11.0652 109.36 10.9702 109.359 10.8725C109.359 10.6415 109.366 10.4105 109.374 10.1797C109.602 9.94849 109.964 10.0373 110.271 10.0372Z" fill="#222222"/>
<path d="M230.789 10.0394C230.871 10.0393 230.953 10.0392 231.037 10.039C231.313 10.0388 231.589 10.0395 231.864 10.0402C232.061 10.0403 232.258 10.0402 232.456 10.0402C232.992 10.0401 233.528 10.0409 234.064 10.0418C234.624 10.0425 235.184 10.0426 235.744 10.0428C236.804 10.0432 237.865 10.0442 238.926 10.0455C240.133 10.0469 241.34 10.0476 242.548 10.0482C245.032 10.0495 247.516 10.0519 250 10.0546C250 11.5566 250 13.0587 250 14.6063C247.484 14.6063 244.967 14.6063 242.375 14.6063C242.375 20.9901 242.375 27.3739 242.375 33.9511C241.966 34.1578 241.515 34.0955 241.066 34.0944C240.909 34.0945 240.909 34.0945 240.748 34.0947C240.527 34.0948 240.305 34.0946 240.084 34.0941C239.743 34.0934 239.403 34.094 239.062 34.0949C238.847 34.0948 238.632 34.0946 238.417 34.0944C238.264 34.0947 238.264 34.0947 238.107 34.0951C237.389 34.0921 237.389 34.0921 237.25 33.9511C237.238 33.7015 237.235 33.4514 237.235 33.2015C237.235 33.0386 237.235 32.8756 237.234 32.7078C237.235 32.5255 237.235 32.3432 237.236 32.161C237.236 31.9704 237.236 31.7798 237.236 31.5892C237.236 31.0701 237.236 30.5511 237.237 30.032C237.238 29.4902 237.238 28.9483 237.238 28.4065C237.239 27.3797 237.24 26.353 237.241 25.3262C237.242 24.1575 237.243 22.9889 237.244 21.8203C237.245 19.4156 237.247 17.011 237.25 14.6063C234.775 14.6063 232.3 14.6063 229.75 14.6063C229.75 13.146 229.75 11.6856 229.75 10.181C230.102 10.0028 230.395 10.0391 230.789 10.0394Z" fill="#222222"/>
<path d="M132.006 10.0361C132.111 10.0364 132.217 10.0366 132.326 10.0369C132.434 10.0368 132.541 10.0367 132.652 10.0365C132.88 10.0365 133.109 10.0367 133.337 10.0372C133.688 10.0379 134.038 10.0372 134.389 10.0364C134.61 10.0365 134.831 10.0367 135.052 10.0369C135.158 10.0367 135.264 10.0364 135.372 10.0361C136.112 10.0392 136.112 10.0392 136.252 10.1801C136.264 10.4869 136.268 10.7901 136.267 11.0969C136.268 11.194 136.268 11.2911 136.268 11.3911C136.269 11.7189 136.268 12.0467 136.268 12.3745C136.268 12.6085 136.268 12.8425 136.268 13.0765C136.269 13.7139 136.269 14.3513 136.268 14.9887C136.268 15.6541 136.268 16.3196 136.269 16.9851C136.269 18.1029 136.268 19.2206 136.268 20.3384C136.267 21.6327 136.267 22.927 136.268 24.2213C136.269 25.3304 136.269 26.4395 136.268 27.5486C136.268 28.2119 136.268 28.8753 136.269 29.5386C136.269 30.1621 136.269 30.7856 136.268 31.4091C136.268 31.6386 136.268 31.8681 136.268 32.0977C136.268 32.4096 136.268 32.7215 136.267 33.0335C136.268 33.1255 136.268 33.2176 136.268 33.3124C136.266 33.9358 136.266 33.9358 136.127 34.0767C135.767 34.0895 135.411 34.0944 135.052 34.0935C134.945 34.0936 134.837 34.0937 134.726 34.0938C134.498 34.0939 134.269 34.0937 134.041 34.0932C133.691 34.0925 133.34 34.0932 132.989 34.094C132.768 34.0939 132.547 34.0937 132.326 34.0935C132.22 34.0937 132.115 34.094 132.006 34.0943C131.266 34.0912 131.266 34.0912 131.127 33.9503C131.114 33.6435 131.11 33.3403 131.111 33.0335C131.111 32.9364 131.11 32.8393 131.11 32.7393C131.11 32.4115 131.11 32.0837 131.11 31.7559C131.11 31.5219 131.11 31.2879 131.11 31.0539C131.109 30.4165 131.109 29.7791 131.11 29.1417C131.11 28.4762 131.11 27.8108 131.11 27.1453C131.109 26.0275 131.11 24.9097 131.11 23.792C131.111 22.4977 131.111 21.2034 131.11 19.9091C131.109 18.8 131.109 17.6909 131.11 16.5818C131.11 15.9185 131.11 15.2551 131.11 14.5918C131.109 13.9683 131.109 13.3448 131.11 12.7213C131.11 12.4918 131.11 12.2623 131.11 12.0327C131.11 11.7208 131.11 11.4088 131.111 11.0969C131.11 11.0049 131.11 10.9128 131.11 10.818C131.113 10.0043 131.214 10.0394 132.006 10.0361Z" fill="#222222"/>
</g>
<defs>
<clipPath id="clip0_4_59">
<rect width="250" height="44" fill="white" transform="translate(0 0.0673828)"/>
</clipPath>
</defs>
</svg>
