<svg width="116" height="115" viewBox="0 0 116 115" fill="none" xmlns="http://www.w3.org/2000/svg">
<path d="M51.7582 97.0613C44.0636 95.8633 37.0934 93.1433 30.907 88.5944C20.5335 80.9668 14.0617 70.8704 12.0849 58.1913C9.67062 42.7066 14.1133 29.2135 25.0437 17.9511C31.8437 10.9445 40.2101 6.57396 49.8949 4.82686C63.8425 2.31073 76.5303 5.32573 87.7082 13.9004C97.5528 21.4523 103.512 31.4694 105.338 43.7184C107.295 56.8469 104.242 68.8174 96.0521 79.3354C88.6026 88.902 78.7626 94.7233 66.7375 96.856C61.7912 97.7332 56.8307 97.7597 51.7582 97.0613ZM35.602 86.9589C46.0617 93.3148 57.2799 95.2306 69.1893 92.2513C91.9446 86.5589 105.722 64.6265 100.904 41.7484C96.5055 20.8654 76.4738 5.38644 52.9892 8.32806C44.3485 9.41037 36.6363 12.8062 30.1802 18.6243C17.9916 29.6084 13.3331 43.3301 16.3654 59.2998C18.6101 71.1214 25.2749 80.2808 35.602 86.9589Z" fill="#EA5708"/>
<path d="M105.262 105.884C105.965 107.136 106.621 108.316 107.364 109.654C108.57 107.564 109.695 105.622 110.814 103.675C111.936 101.722 111.933 101.72 114.324 101.982C114.324 105.364 114.324 108.751 114.324 112.189C113.834 112.189 113.382 112.189 112.83 112.189C112.83 109.446 112.83 106.672 112.83 103.898C112.76 103.877 112.689 103.856 112.619 103.835C111.428 105.941 110.238 108.047 109.045 110.152C108.747 110.679 108.457 111.212 108.133 111.724C107.651 112.487 106.948 112.458 106.514 111.673C105.11 109.137 103.707 106.601 102.147 103.781C102.147 106.751 102.147 109.424 102.147 112.167C101.474 112.167 100.917 112.167 100.293 112.167C100.293 108.792 100.293 105.404 100.293 101.889C100.938 101.889 101.596 101.806 102.219 101.918C102.625 101.992 103.111 102.263 103.331 102.596C104.018 103.63 104.594 104.735 105.262 105.884Z" fill="#222222"/>
<path d="M41.7581 101.891C43.4897 101.891 45.1053 101.891 46.7911 101.891C46.7911 102.498 46.7911 103.049 46.7911 103.702C44.3127 103.702 41.8237 103.702 39.2712 103.702C39.2712 104.426 39.2712 105.053 39.2712 105.801C40.6953 105.801 42.1117 105.771 43.526 105.812C44.3258 105.835 45.1412 105.896 45.9155 106.08C47.0601 106.353 47.5354 107.275 47.7044 108.331C48.021 110.308 47.3544 112.365 44.6515 112.259C42.3451 112.169 40.0323 112.241 37.6523 112.241C37.6523 108.799 37.6523 105.415 37.6523 101.891C38.9727 101.891 40.3075 101.891 41.7581 101.891ZM39.6455 110.559C41.4523 110.514 43.2589 110.449 45.0659 110.432C46.1301 110.423 45.8914 109.683 45.9429 109.063C46.004 108.327 45.8342 107.685 44.9959 107.659C43.0853 107.601 41.1717 107.641 39.0938 107.641C39.2178 108.704 39.3247 109.621 39.6455 110.559Z" fill="#222222"/>
<path d="M55.9089 112.241C54.7506 112.241 53.7075 112.247 52.6645 112.24C50.8968 112.229 49.6892 111.477 49.5319 109.78C49.351 107.828 49.4778 105.826 49.6888 103.869C49.8192 102.659 50.9917 101.91 52.2566 101.894C53.9175 101.873 55.5788 101.878 57.2399 101.884C59.9214 101.893 60.9139 102.783 60.9918 105.458C61.036 106.973 60.916 108.5 60.7694 110.013C60.6411 111.336 59.6722 112.174 58.3418 112.235C57.5708 112.27 56.7968 112.241 55.9089 112.241ZM51.2543 109.05C51.2163 109.908 51.5195 110.434 52.4944 110.422C54.3372 110.4 56.1805 110.405 58.0235 110.415C58.8898 110.42 59.1589 109.925 59.1595 109.173C59.1607 107.872 59.1669 106.572 59.1581 105.272C59.1499 104.06 58.7676 103.572 57.5756 103.519C56.0354 103.452 54.4879 103.454 52.9475 103.519C51.9503 103.561 51.1831 103.944 51.2325 105.178C51.2813 106.397 51.2247 107.619 51.2543 109.05Z" fill="#222222"/>
<path d="M98.0906 103.419C98.1916 105.709 98.3933 107.915 98.2857 110.107C98.2185 111.477 97.0683 112.224 95.6124 112.238C93.7202 112.257 91.8275 112.261 89.9355 112.238C88.1398 112.215 87.0115 111.089 86.9961 109.333C86.9827 107.802 86.9779 106.27 86.9974 104.739C87.0191 103.028 88.1306 101.918 89.8548 101.897C91.6696 101.875 93.4857 101.923 95.2997 101.88C96.521 101.852 97.4444 102.276 98.0906 103.419ZM96.5183 104.563C96.2799 104.282 96.0516 103.767 95.8013 103.757C93.8292 103.672 91.8519 103.641 89.8783 103.685C88.9934 103.705 88.6704 104.442 88.6347 105.194C88.5749 106.452 88.5689 107.718 88.6357 108.975C88.6784 109.778 89.0265 110.433 90.0238 110.426C91.9032 110.411 93.7841 110.446 95.6606 110.369C95.9564 110.357 96.4626 109.886 96.48 109.603C96.579 107.991 96.5594 106.372 96.5183 104.563Z" fill="#222222"/>
<path d="M27.1835 108.859C27.1821 110 27.1821 111.033 27.1821 112.152C26.6449 112.152 26.137 112.152 25.5742 112.152C25.5742 108.759 25.5742 105.373 25.5742 102.106C28.2651 102.106 30.9043 102.06 33.5409 102.123C35.0626 102.159 35.9241 103.808 35.7234 105.898C35.5776 107.416 34.544 108.283 32.8187 108.321C31.2362 108.356 29.6516 108.307 28.0694 108.348C27.7712 108.355 27.4795 108.609 27.1835 108.859ZM27.181 105.862C27.4448 106.071 27.7026 106.452 27.9733 106.461C29.6286 106.518 31.287 106.476 32.944 106.497C33.5439 106.504 33.9374 106.358 33.8744 105.674C33.8065 104.937 34.2202 103.845 33.0283 103.765C31.121 103.638 29.1987 103.731 27.1806 103.731C27.1806 104.442 27.1806 105.044 27.181 105.862Z" fill="#222222"/>
<path d="M63.5458 108.998C64.4633 107.11 65.3536 105.305 66.2469 103.501C67.0674 101.845 67.0688 101.845 69.0426 101.924C70.694 105.296 72.3608 108.699 74.0328 112.113C72.6935 112.532 71.8282 112.171 71.4562 110.859C71.2502 110.132 70.7948 109.88 70.0142 109.92C68.6655 109.99 67.3087 109.979 65.9587 109.924C65.252 109.894 64.7514 110.043 64.5671 110.765C64.2345 112.067 63.4345 112.572 62.0078 112.133C62.5025 111.135 63.0112 110.108 63.5458 108.998ZM68.823 105.536C68.5768 105.057 68.3305 104.578 67.9873 103.91C67.2652 105.4 66.6392 106.692 65.9697 108.073C67.4182 108.073 68.6763 108.073 70.0259 108.073C69.6339 107.243 69.2683 106.469 68.823 105.536Z" fill="#222222"/>
<path d="M18.0726 107.194C18.2823 107.549 18.4648 107.823 18.7141 108.198C19.6711 106.511 20.6931 104.957 21.4562 103.286C22.0648 101.954 22.9391 101.646 24.3153 101.98C22.6012 104.927 20.9441 107.881 19.1775 110.769C18.3404 112.137 17.5919 112.348 15.813 112.14C15.813 111.664 15.813 111.18 15.813 110.674C15.918 110.636 16.0166 110.582 16.1214 110.565C17.9392 110.259 17.9365 110.262 16.9536 108.66C15.5997 106.453 14.2504 104.243 12.8945 102.027C14.7284 101.703 14.7375 101.723 15.6605 103.265C16.4353 104.56 17.2489 105.832 18.0726 107.194Z" fill="#222222"/>
<path d="M80.9698 108.33C80.9698 109.665 80.9698 110.885 80.9698 112.174C80.3887 112.174 79.8681 112.174 79.2335 112.174C79.2335 109.404 79.2335 106.627 79.2335 103.774C77.7053 103.774 76.2876 103.774 74.7852 103.774C74.7852 103.15 74.7852 102.599 74.7852 101.965C78.2275 101.965 81.7227 101.965 85.3009 101.965C85.3009 102.477 85.3009 103.029 85.3009 103.684C83.9373 103.684 82.5267 103.684 80.9698 103.684C80.9698 105.259 80.9698 106.737 80.9698 108.33Z" fill="#222222"/>
<path d="M1.63981 103.458C1.62891 102.9 1.62891 102.449 1.62891 101.945C5.20563 101.945 8.6997 101.945 12.2458 101.945C12.2458 102.535 12.2458 103.085 12.2458 103.724C10.745 103.724 9.292 103.724 7.72558 103.724C7.72558 106.583 7.72558 109.357 7.72558 112.184C7.12932 112.184 6.6461 112.184 6.05835 112.184C6.05835 109.402 6.05835 106.626 6.05835 103.827C4.52217 103.736 3.08645 103.651 1.63981 103.458Z" fill="#222222"/>
<path d="M89.0622 39.1258C84.3139 29.9688 76.9136 24.4328 66.7984 22.4572C52.7273 19.709 38.8764 28.6624 35.7683 42.5935C35.2889 44.7424 35.1071 46.9565 34.7759 49.221C29.7228 49.221 24.5628 49.221 19.4023 49.221C19.4975 33.3039 32.1478 14.7568 53.7444 12.0377C75.6848 9.27519 94.0378 24.6123 97.443 43.8966C101.63 67.6109 83.6793 88.0466 61.767 89.6438C61.767 88.6561 61.767 87.6719 61.767 86.6109C65.588 85.7921 69.2481 84.5078 72.6275 82.5527C82.7417 76.7011 89.1994 68.2006 91.3078 56.6873C92.4108 50.6641 91.7823 44.7908 89.0622 39.1258Z" fill="#EA5708"/>
<path d="M47.8127 66.4766C47.8071 65.8649 47.805 65.3669 47.792 64.8691C47.7903 64.8019 47.7337 64.7361 47.6783 64.6179C46.2146 64.6179 44.7298 64.6179 43.1316 64.6179C43.1316 71.9218 43.1316 79.1758 43.1316 86.5942C40.2117 85.3341 37.6497 83.8093 35.2645 81.999C35.0176 81.8116 34.9875 81.2444 34.9861 80.853C34.9685 75.8715 34.9745 70.8899 34.9744 65.9083C34.9744 65.4974 34.9744 65.0865 34.9744 64.6207C33.2762 64.6207 31.7047 64.6207 30.0583 64.6207C30.0583 68.8092 30.0583 72.97 30.0583 77.113C26.4472 75.501 20.8244 63.8794 19.5586 55.2891C32.5199 55.2891 45.4693 55.2891 58.4687 55.2891C58.4687 66.7281 58.4687 78.1365 58.4687 89.5472C56.4413 90.0104 50.6903 89.2776 47.8127 88.1705C47.8127 80.9927 47.8127 73.7915 47.8127 66.4766Z" fill="#EA5708"/>
<path d="M67.3577 43.6083C63.8316 41.1426 58.2051 41.6171 54.7639 44.7829C53.6053 45.8487 52.8123 47.2993 51.8036 48.535C51.5382 48.8602 51.1103 49.2102 50.7241 49.2525C49.7793 49.3559 48.8153 49.2862 47.7344 49.2862C49.1078 44.6515 51.7698 41.173 55.7913 38.7582C65.4669 32.9483 78.0316 37.2851 82.1534 48.323C87.4053 62.3875 78.7676 77.9307 63.9099 80.9678C63.2341 81.1059 62.5558 81.2317 61.7931 81.3799C61.7931 72.6723 61.7931 64.0073 61.7931 55.2629C62.5727 55.2221 63.3839 55.2633 64.1621 55.1237C66.8633 54.6389 68.7424 53.1027 69.5274 50.4875C70.3328 47.8045 69.5163 45.5148 67.3577 43.6083Z" fill="#EA5708"/>
</svg>
