<svg width="207" height="35" viewBox="0 0 207 35" fill="none" xmlns="http://www.w3.org/2000/svg">
<path d="M86.4565 13.956L84.5774 14.0001V6.45279H86.7309C88.3623 6.45279 88.8978 7.65484 88.8978 10.281C88.8978 12.9071 88.2956 13.956 86.4565 13.956ZM95.9378 31.1637V23.0748C95.9378 19.2389 94.5752 17.009 91.6631 16.4845C95.0478 15.583 95.974 12.731 95.974 9.07892C95.974 3.93002 94.1311 0.729658 88.1526 0.729658H77.4459L77.4516 34.0674H84.5793V19.572H86.3364C88.0516 19.572 88.8654 20.7606 88.8654 22.3474V31.2154C88.8654 32.6892 89.1608 33.7764 89.3628 34.0655H96.5724C96.3209 33.7898 95.9378 32.6395 95.9378 31.1637ZM15.9839 28.3978C17.2589 27.3298 17.4781 26.0071 17.4781 24.8204V19.8361H10.5486V26.5986C10.5486 27.5671 9.76911 28.3519 8.80669 28.3519C7.84426 28.3519 7.12768 27.5671 7.12768 26.5986V7.44046C7.12768 6.47385 7.84426 5.68907 8.80669 5.68907C9.76911 5.68907 10.5486 6.47385 10.5486 7.44046V14.247H17.4685V7.18589C17.4685 3.28497 14.93 0.0750392 8.74761 0.0673828C2.3994 0.0673828 0 3.29263 0 7.19354V27.1977C0 31.0642 3.0569 33.9889 6.96569 33.9889H9.11161L15.9839 28.3978ZM196.895 13.9388H195.003V6.43556H197.168C198.796 6.43556 199.335 7.63761 199.335 10.2618C199.335 12.8899 198.736 13.9388 196.895 13.9388ZM206.369 31.1465V23.0556C206.369 19.2217 205.012 16.9918 202.1 16.4654C205.485 15.5658 206.411 12.7157 206.411 9.06553C206.411 3.91279 204.562 0.712431 198.59 0.712431H187.881V34.0502H195.026V19.5567H196.77C198.489 19.5567 199.293 20.7434 199.293 22.3321V31.2001C199.293 32.6758 199.596 33.7611 199.796 34.0502H207C206.752 33.7726 206.369 32.6203 206.369 31.1465ZM173.039 22.0545L174.895 6.49873L176.747 22.0545H173.039ZM179.669 0.647352H170.085L164.39 34.0482H171.606L172.313 28.1548L177.468 28.1509L178.171 34.0482H185.392L179.669 0.647352ZM139.188 0.720088V27.7183H146.805V34.0444H131.877V0.720088H139.188ZM120.7 0.722002H128.005V34.0463H120.7V0.722002Z" fill="#222222"/>
<path d="M140.497 1.07307V27.7917H148.178V34.0522H133.127V1.07307H140.497ZM157.316 1.07307V27.7917H165V34.0522H149.951V1.07307H157.316ZM109.798 15.1342L107.6 15.1077V6.7426H109.787C111.654 6.7426 111.968 8.00418 111.968 11.0236C111.968 14.1435 111.652 15.1342 109.798 15.1342ZM111.652 1.07496H100.422V34.0674H107.623V20.9742H111.652C118.268 20.9742 119.384 16.8182 119.384 11.0236C119.386 5.23098 118.27 1.07496 111.652 1.07496ZM73.4307 13.8953V20.3567H65.8044V27.6799L74.866 27.6761V34.0428L58.4279 34.0503V1.06738H58.4202H74.5682V7.36013H65.8044V13.8953H73.4307ZM39 7.48515V1.07685H56.4507V7.48515H51.6048V33.9575H49.5373L43.8229 29.2408V7.48515H39Z" fill="#222222"/>
<path d="M12 34.0674H46L29.3021 20.0674L12 34.0674Z" fill="#EA5708"/>
<path d="M27.8502 16.8571L29.7688 6.92849L31.6775 16.8571H27.8502ZM34.7112 1.06738H24.7832L19 27.3432L29.7707 18.5396L41 28.0674L34.7112 1.06738Z" fill="#222222"/>
</svg>
