<svg width="220" height="51" viewBox="0 0 220 51" fill="none" xmlns="http://www.w3.org/2000/svg">
<path d="M12.7149 39.788C10.5891 37.5184 8.63209 35.1471 6.84375 32.6064H12.7149V39.788ZM26.0094 39.788C28.1352 37.5184 30.0922 35.1471 31.9143 32.6064H26.0094V39.788ZM16.3928 42.9723C18.2487 43.853 20.4419 43.8531 22.2977 42.9384V32.6064H16.3928V42.9723Z" fill="#EA5708"/>
<path d="M41.5274 25.3912C39.4016 27.6608 37.4446 30.0321 35.6562 32.5728H41.5274V25.3912ZM45.2728 21.6988V32.5728H51.1777V16.8885C49.1194 18.379 47.1286 20.005 45.2728 21.6988ZM54.9231 14.3817V32.6066H60.828V11.1635C58.7697 12.0782 56.8127 13.1622 54.9231 14.3817ZM64.5397 9.46978V32.5728H70.4109V7.47113C68.4201 8.04702 66.463 8.72452 64.5397 9.46978ZM130.607 32.5728H137.457V7.47113H130.607V32.5728ZM209.261 26.5768V32.5728H191.782V7.47113H209.261V13.4671H198.632V17.0917H208.754V22.6812H198.632V26.5768H209.261ZM95.009 26.7801H89.7452V22.5795H95.1777C96.2575 22.5795 97.1348 23.4264 97.1685 24.5104C97.1685 24.5443 97.1685 24.6121 97.1685 24.6459C97.2023 25.7977 96.2912 26.7462 95.144 26.7801C95.1102 26.7801 95.0428 26.7801 95.009 26.7801ZM94.5366 13.3316C95.5151 13.3316 96.2912 14.1107 96.2912 15.0931C96.2912 15.1608 96.2912 15.1947 96.2912 15.2625C96.325 16.2787 95.5489 17.1595 94.5029 17.2272C94.4691 17.2272 94.4016 17.2272 94.3679 17.2272H89.7452V13.3654L94.5366 13.3316ZM99.5305 19.7001C101.757 18.6161 103.141 16.3803 103.107 13.9074C103.107 9.13103 98.8894 7.50501 96.3924 7.50501H82.8955V32.5728H95.1777C101.015 32.5728 104.153 29.9982 104.153 26.1703C104.187 21.5294 100.981 20.1405 99.5305 19.7001ZM113.702 18.8532H117.38C119.067 18.8532 119.742 17.5999 119.742 16.1771C119.742 15.3641 119.54 13.5009 117.211 13.5009H113.702V18.8532ZM106.853 32.5728V7.47113H118.73C121.159 7.47113 126.761 9.36816 126.761 16.1771C126.727 18.9888 125.377 21.631 123.15 23.3248L128.785 32.5389H121.024L115.929 24.2394H113.702V32.5389H106.853V32.5728ZM156.353 20.005C156.353 13.8736 151.595 13.5009 150.718 13.5009H147.984V26.5429H150.718C151.629 26.5429 156.353 26.0009 156.353 20.005ZM141.101 32.5728V7.47113H151.46C154.396 7.47113 163.337 9.46978 163.337 19.9711C163.337 29.8966 155.509 32.5389 151.494 32.5389H141.101V32.5728ZM188.644 18.0741H178.285V23.6635H182.537C181.524 25.4928 179.938 26.6446 177.644 26.6446C173.123 26.6446 171.908 22.5118 171.908 20.0389C171.908 18.2096 172.684 13.4332 177.61 13.4332C179.702 13.3993 181.659 14.585 182.57 16.482L188.239 13.1283C185.911 9.26653 181.659 7.30176 177.678 7.30176C170.457 7.30176 164.889 12.9251 164.889 19.9711C164.889 26.2719 169.647 32.8099 177.543 32.8099C182.3 32.8099 186.653 29.9982 188.644 25.6283V18.0741Z" fill="#222222"/>
</svg>
