<svg width="270" height="59" viewBox="0 0 270 59" fill="none" xmlns="http://www.w3.org/2000/svg">
<mask id="path-1-inside-1_4_53" fill="white">
<path fill-rule="evenodd" clip-rule="evenodd" d="M76.7162 29.6697C76.7162 27.8345 76.2337 26.3856 75.1722 25.3231C74.2072 24.2606 72.7598 23.7777 70.9263 23.7777C68.7069 23.7777 66.7769 24.5504 65.1365 25.9993V45.414C65.1365 45.897 64.9435 46.2834 64.654 46.6697C64.3645 46.9595 63.882 47.1527 63.3995 47.1527C62.9171 47.1527 62.5311 46.9595 62.1451 46.6697C61.8556 46.38 61.6626 45.897 61.6626 45.414V12.0902C61.6626 11.6072 61.8556 11.2209 62.1451 10.8345C62.4346 10.5447 62.9171 10.3516 63.3995 10.3516C63.882 10.3516 64.268 10.5447 64.654 10.8345C64.9435 11.1243 65.1365 11.6072 65.1365 12.0902V22.1356C66.005 21.6527 66.9699 21.2663 67.9349 21.0731C68.8999 20.7834 69.9614 20.6868 70.9263 20.6868C72.2773 20.6868 73.5317 20.88 74.6897 21.3629C75.8477 21.8459 76.8127 22.4254 77.5846 23.2947C78.3566 24.0675 79.0321 25.0334 79.4181 26.2891C79.9006 27.4481 80.0936 28.7038 80.0936 30.1527V45.8004C80.0936 46.2834 79.9006 46.6697 79.6111 47.0561C79.3216 47.3459 78.8391 47.539 78.3566 47.539C77.8741 47.539 77.4881 47.3459 77.1021 47.0561C76.8127 46.7663 76.6197 46.2834 76.6197 45.8004V29.6697H76.7162ZM88.1993 22.3288C88.1993 21.8459 88.3923 21.4595 88.6818 21.0731C88.9713 20.7834 89.4538 20.5902 89.9363 20.5902C90.4188 20.5902 90.8047 20.7834 91.1907 21.0731C91.4802 21.3629 91.6732 21.8459 91.6732 22.3288V45.5106C91.6732 45.9936 91.4802 46.38 91.1907 46.7663C90.9012 47.0561 90.4188 47.2493 89.9363 47.2493C89.4538 47.2493 89.0678 47.0561 88.6818 46.7663C88.3923 46.4765 88.1993 45.9936 88.1993 45.5106V22.3288ZM114.64 45.5106C113.771 46.0902 112.806 46.5731 111.841 46.8629C110.876 47.1527 109.911 47.2493 108.85 47.2493C107.499 47.2493 106.244 47.0561 105.086 46.5731C103.928 46.0902 102.963 45.5106 102.191 44.6413C101.419 43.772 100.744 42.9027 100.358 41.647C99.8755 40.4879 99.6825 39.2322 99.6825 37.7834V29.8629C99.6825 28.5106 99.8755 27.255 100.358 25.9993C100.84 24.7436 101.419 23.8743 102.191 23.005C102.963 22.2322 103.928 21.5561 105.086 21.0731C106.244 20.5902 107.499 20.397 108.85 20.397C110.201 20.397 111.455 20.4936 112.71 20.6868C113.964 20.88 115.219 21.1697 116.376 21.6527C116.859 21.8459 117.245 22.1356 117.534 22.522C117.824 22.9084 118.017 23.3913 118.017 23.8743V48.6981C118.017 50.0504 117.824 51.3061 117.341 52.5618C116.859 53.7209 116.28 54.6868 115.508 55.5561C114.736 56.3288 113.771 57.0049 112.613 57.3913C111.455 57.8743 110.201 58.0674 108.85 58.0674C107.595 58.0674 106.437 57.9709 105.279 57.6811C104.121 57.3913 102.963 57.0049 101.902 56.6186C101.226 56.3288 100.937 55.8459 100.937 55.0731C100.937 54.5902 101.13 54.2038 101.419 53.914C101.709 53.6243 102.095 53.4311 102.577 53.4311C102.77 53.4311 102.963 53.5277 103.253 53.6243C104.121 54.0106 105.086 54.3004 106.051 54.5902C107.016 54.8799 107.981 54.9765 108.946 54.9765C110.78 54.9765 112.131 54.397 113.192 53.3345C114.157 52.272 114.736 50.7265 114.736 48.8913L114.64 45.5106ZM114.64 24.647C112.806 24.0675 110.876 23.7777 108.946 23.7777C107.113 23.7777 105.762 24.2606 104.7 25.3231C103.639 26.3856 103.156 27.7379 103.156 29.6697V38.0731C103.156 39.9084 103.639 41.3572 104.7 42.4197C105.762 43.4822 107.113 43.9652 108.946 43.9652C110.008 43.9652 111.069 43.772 112.034 43.3856C112.999 42.9993 113.868 42.4197 114.64 41.7436V24.647ZM140.501 29.6697C140.501 27.8345 140.018 26.3856 138.957 25.3231C137.992 24.2606 136.544 23.7777 134.711 23.7777C132.492 23.7777 130.562 24.5504 128.921 25.9993V45.414C128.921 45.897 128.728 46.2834 128.439 46.6697C128.149 46.9595 127.667 47.1527 127.184 47.1527C126.702 47.1527 126.316 46.9595 125.93 46.6697C125.64 46.38 125.447 45.897 125.447 45.414V12.0902C125.447 11.6072 125.64 11.2209 125.93 10.8345C126.219 10.5447 126.702 10.3516 127.184 10.3516C127.667 10.3516 128.053 10.5447 128.439 10.8345C128.728 11.1243 128.921 11.6072 128.921 12.0902V22.1356C129.79 21.6527 130.755 21.2663 131.72 21.0731C132.685 20.7834 133.746 20.6868 134.711 20.6868C136.062 20.6868 137.316 20.88 138.474 21.3629C139.632 21.8459 140.597 22.4254 141.369 23.2947C142.141 24.0675 142.817 25.0334 143.203 26.2891C143.685 27.4481 143.878 28.7038 143.878 30.1527V45.8004C143.878 46.2834 143.685 46.6697 143.396 47.0561C143.106 47.4425 142.624 47.539 142.141 47.539C141.659 47.539 141.273 47.3459 140.887 47.0561C140.597 46.7663 140.404 46.2834 140.404 45.8004V29.6697H140.501ZM151.405 27.6413C151.405 26.5788 151.598 25.6129 151.887 24.8402C152.177 24.0675 152.756 23.2947 153.335 22.6186C153.914 21.9425 154.589 21.5561 155.458 21.1697C156.23 20.88 157.098 20.6868 158.063 20.6868C159.221 20.6868 160.379 20.7834 161.73 21.0731C162.116 21.1697 162.502 21.3629 162.695 21.6527C162.985 21.9425 163.081 22.3288 163.081 22.7152C163.081 23.1981 162.888 23.5845 162.599 23.8743C162.309 24.1641 161.827 24.3572 161.344 24.3572C161.248 24.3572 161.055 24.3572 160.958 24.2606C160.862 24.2606 160.669 24.1641 160.476 24.1641C160.09 24.0675 159.704 24.0675 159.318 23.9709C158.932 23.8743 158.546 23.8743 158.063 23.8743C157.195 23.8743 156.423 24.1641 155.844 24.8402C155.265 25.4197 154.879 26.2891 154.879 27.4481V45.5106C154.879 45.9936 154.686 46.38 154.396 46.7663C154.107 47.0561 153.624 47.2493 153.142 47.2493C152.659 47.2493 152.273 47.0561 151.887 46.7663C151.501 46.4765 151.405 45.9936 151.405 45.5106V27.6413ZM184.118 43.772C184.118 44.255 183.925 44.7379 183.635 45.1243C183.346 45.5106 182.96 45.8004 182.477 45.9936C181.223 46.38 180.065 46.6697 178.81 46.9595C177.556 47.1527 176.301 47.2493 174.95 47.2493C171.862 47.2493 169.546 46.5731 168.002 45.1243C166.555 43.772 165.783 41.8402 165.783 39.4254C165.783 37.1072 166.555 35.0788 168.002 33.7266C168.774 33.0504 169.739 32.4709 170.897 32.1811C172.055 31.8913 173.406 31.6981 174.95 31.6981H180.644V28.4141C180.644 26.8686 180.161 25.8061 179.196 24.9368C178.231 24.0675 176.977 23.7777 175.336 23.7777C174.371 23.7777 173.31 23.8743 172.441 24.1641C171.476 24.4538 170.511 24.8402 169.546 25.4197C169.257 25.6129 168.967 25.7095 168.774 25.7095C168.292 25.7095 167.906 25.6129 167.52 25.3231C167.231 25.0334 167.038 24.647 167.038 24.1641C167.038 23.4879 167.327 23.005 167.906 22.6186C169.064 21.8459 170.318 21.3629 171.573 21.0731C172.827 20.7834 174.082 20.5902 175.336 20.5902C176.494 20.5902 177.652 20.7834 178.714 21.0731C179.775 21.3629 180.74 21.8459 181.512 22.522C182.284 23.1981 182.96 23.9709 183.442 24.9368C183.925 25.9027 184.118 26.9652 184.118 28.4141V43.772ZM180.74 34.8856H175.047C173.792 34.8856 172.731 34.9822 171.959 35.272C171.187 35.5618 170.608 35.8516 170.222 36.3345C169.836 36.8175 169.546 37.2038 169.45 37.7834C169.353 38.2663 169.257 38.8459 169.257 39.3288C169.257 39.8118 169.353 40.3913 169.45 40.8743C169.546 41.4538 169.836 41.9368 170.222 42.3231C170.608 42.7095 171.187 43.1925 171.959 43.3856C172.731 43.6754 173.792 43.772 175.047 43.772C176.977 43.772 178.907 43.4822 180.74 42.9027V34.8856ZM200.812 47.2493C199.461 47.2493 198.206 47.0561 197.048 46.5731C195.89 46.0902 194.925 45.5106 194.153 44.6413C193.381 43.8686 192.706 42.9027 192.32 41.647C191.837 40.4879 191.644 39.2322 191.644 37.7834V29.8629C191.644 27.0618 192.513 24.7436 194.153 23.005C195.794 21.3629 198.013 20.4936 200.812 20.4936C201.873 20.4936 202.838 20.5902 203.803 20.88C204.768 21.1697 205.733 21.5561 206.601 21.9425V12.0902C206.601 11.6072 206.794 11.2209 207.084 10.8345C207.373 10.5447 207.856 10.3516 208.338 10.3516C208.821 10.3516 209.207 10.5447 209.593 10.8345C209.882 11.1243 210.075 11.6072 210.075 12.0902V43.6754C210.075 44.1584 209.882 44.6413 209.593 45.0277C209.303 45.414 208.917 45.7038 208.435 45.897C207.18 46.2834 206.022 46.5731 204.768 46.8629C203.417 47.1527 202.163 47.2493 200.812 47.2493ZM195.022 38.1697C195.022 40.005 195.504 41.4538 196.566 42.5163C197.531 43.5788 198.978 44.0618 200.812 44.0618C202.838 44.0618 204.671 43.772 206.601 43.1925V25.8061C205.829 25.0334 204.961 24.5504 203.899 24.2606C202.934 23.9709 201.873 23.7777 200.812 23.7777C198.978 23.7777 197.627 24.2606 196.566 25.3231C195.601 26.3856 195.022 27.7379 195.022 29.6697V38.1697ZM218.085 22.3288C218.085 21.8459 218.278 21.4595 218.567 21.0731C218.857 20.7834 219.339 20.5902 219.821 20.5902C220.304 20.5902 220.69 20.7834 221.076 21.0731C221.365 21.3629 221.558 21.8459 221.558 22.3288V45.5106C221.558 45.9936 221.365 46.38 221.076 46.7663C220.786 47.0561 220.304 47.2493 219.821 47.2493C219.339 47.2493 218.953 47.0561 218.567 46.7663C218.278 46.4765 218.085 45.9936 218.085 45.5106V22.3288ZM89.9363 16.8232C89.1643 16.8232 88.5853 16.5334 88.1028 16.0504C87.6203 15.5675 87.3308 14.8913 87.3308 14.2152C87.3308 13.4425 87.6203 12.8629 88.1028 12.38C88.5853 11.897 89.2608 11.6072 89.9363 11.6072C90.7082 11.6072 91.2872 11.897 91.7697 12.38C92.2522 12.8629 92.5417 13.5391 92.5417 14.2152C92.5417 14.9879 92.2522 15.5675 91.7697 16.0504C91.2872 16.5334 90.6117 16.8232 89.9363 16.8232ZM244.525 22.3288C244.525 21.8459 244.718 21.4595 245.007 21.0731C245.297 20.7834 245.779 20.5902 246.262 20.5902C246.744 20.5902 247.13 20.7834 247.516 21.0731C247.806 21.3629 247.999 21.8459 247.999 22.3288V43.772C247.999 44.255 247.902 44.7379 247.613 45.1243C247.323 45.5106 246.937 45.8004 246.455 45.9936C245.2 46.38 244.042 46.6697 242.691 46.9595C241.437 47.1527 240.086 47.2493 238.831 47.2493C235.937 47.2493 233.717 46.38 232.077 44.7379C230.436 43.0959 229.568 40.7777 229.568 37.88V22.3288C229.568 21.8459 229.761 21.4595 230.05 21.0731C230.34 20.7834 230.822 20.5902 231.305 20.5902C231.787 20.5902 232.173 20.7834 232.559 21.0731C232.849 21.3629 233.042 21.8459 233.042 22.3288V38.1697C233.042 40.005 233.524 41.4538 234.586 42.5163C235.647 43.5788 236.998 44.0618 238.831 44.0618C240.761 44.0618 242.691 43.772 244.525 43.1925V22.3288ZM258.71 34.0163C257.552 33.5334 256.49 32.7606 255.622 31.7947C254.753 30.8288 254.271 29.38 254.271 27.5447C254.271 26.4822 254.464 25.5163 254.946 24.7436C255.429 23.8743 256.008 23.1981 256.683 22.6186C257.455 22.0391 258.324 21.5561 259.289 21.2663C260.254 20.9766 261.315 20.7834 262.473 20.7834C263.728 20.7834 264.789 20.88 265.851 21.1697C266.816 21.3629 267.781 21.7493 268.649 22.0391C269.325 22.3288 269.711 22.9084 269.711 23.6811C269.711 24.1641 269.518 24.5504 269.228 24.8402C268.939 25.13 268.456 25.2266 267.974 25.2266C267.781 25.2266 267.588 25.13 267.298 25.0334C265.754 24.2606 264.017 23.9709 262.087 23.9709C261.605 23.9709 261.122 24.0675 260.543 24.1641C260.061 24.2606 259.578 24.4538 259.192 24.7436C258.806 25.0334 258.42 25.4197 258.131 25.8061C257.841 26.2891 257.745 26.772 257.745 27.4481C257.745 28.4141 258.034 29.1868 258.613 29.7663C259.192 30.3459 259.771 30.7322 260.254 30.9254L264.982 32.8572C266.526 33.4368 267.684 34.3061 268.649 35.4652C269.614 36.6243 270 37.9765 270 39.6186C270 40.6811 269.807 41.647 269.421 42.6129C269.035 43.5788 268.456 44.3515 267.781 45.0277C267.105 45.7038 266.237 46.1868 265.175 46.5731C264.21 46.9595 263.149 47.1527 261.991 47.1527C260.64 47.1527 259.482 47.0561 258.42 46.7663C257.359 46.4765 256.297 46.1868 255.332 45.7038C254.657 45.414 254.367 44.8345 254.367 44.1584C254.367 43.6754 254.56 43.289 254.85 42.9993C255.139 42.7095 255.622 42.5163 256.104 42.5163C256.201 42.5163 256.394 42.5163 256.49 42.6129C256.587 42.6129 256.683 42.7095 256.876 42.8061C257.648 43.1925 258.517 43.4822 259.385 43.6754C260.254 43.8686 261.219 44.0618 262.184 44.0618C263.342 44.0618 264.403 43.772 265.272 43.0959C266.14 42.4197 266.623 41.5504 266.623 40.3913C266.623 39.3288 266.333 38.4595 265.851 37.88C265.368 37.3004 264.5 36.7209 263.438 36.2379L258.71 34.0163Z"/>
</mask>
<path fill-rule="evenodd" clip-rule="evenodd" d="M76.7162 29.6697C76.7162 27.8345 76.2337 26.3856 75.1722 25.3231C74.2072 24.2606 72.7598 23.7777 70.9263 23.7777C68.7069 23.7777 66.7769 24.5504 65.1365 25.9993V45.414C65.1365 45.897 64.9435 46.2834 64.654 46.6697C64.3645 46.9595 63.882 47.1527 63.3995 47.1527C62.9171 47.1527 62.5311 46.9595 62.1451 46.6697C61.8556 46.38 61.6626 45.897 61.6626 45.414V12.0902C61.6626 11.6072 61.8556 11.2209 62.1451 10.8345C62.4346 10.5447 62.9171 10.3516 63.3995 10.3516C63.882 10.3516 64.268 10.5447 64.654 10.8345C64.9435 11.1243 65.1365 11.6072 65.1365 12.0902V22.1356C66.005 21.6527 66.9699 21.2663 67.9349 21.0731C68.8999 20.7834 69.9614 20.6868 70.9263 20.6868C72.2773 20.6868 73.5317 20.88 74.6897 21.3629C75.8477 21.8459 76.8127 22.4254 77.5846 23.2947C78.3566 24.0675 79.0321 25.0334 79.4181 26.2891C79.9006 27.4481 80.0936 28.7038 80.0936 30.1527V45.8004C80.0936 46.2834 79.9006 46.6697 79.6111 47.0561C79.3216 47.3459 78.8391 47.539 78.3566 47.539C77.8741 47.539 77.4881 47.3459 77.1021 47.0561C76.8127 46.7663 76.6197 46.2834 76.6197 45.8004V29.6697H76.7162ZM88.1993 22.3288C88.1993 21.8459 88.3923 21.4595 88.6818 21.0731C88.9713 20.7834 89.4538 20.5902 89.9363 20.5902C90.4188 20.5902 90.8047 20.7834 91.1907 21.0731C91.4802 21.3629 91.6732 21.8459 91.6732 22.3288V45.5106C91.6732 45.9936 91.4802 46.38 91.1907 46.7663C90.9012 47.0561 90.4188 47.2493 89.9363 47.2493C89.4538 47.2493 89.0678 47.0561 88.6818 46.7663C88.3923 46.4765 88.1993 45.9936 88.1993 45.5106V22.3288ZM114.64 45.5106C113.771 46.0902 112.806 46.5731 111.841 46.8629C110.876 47.1527 109.911 47.2493 108.85 47.2493C107.499 47.2493 106.244 47.0561 105.086 46.5731C103.928 46.0902 102.963 45.5106 102.191 44.6413C101.419 43.772 100.744 42.9027 100.358 41.647C99.8755 40.4879 99.6825 39.2322 99.6825 37.7834V29.8629C99.6825 28.5106 99.8755 27.255 100.358 25.9993C100.84 24.7436 101.419 23.8743 102.191 23.005C102.963 22.2322 103.928 21.5561 105.086 21.0731C106.244 20.5902 107.499 20.397 108.85 20.397C110.201 20.397 111.455 20.4936 112.71 20.6868C113.964 20.88 115.219 21.1697 116.376 21.6527C116.859 21.8459 117.245 22.1356 117.534 22.522C117.824 22.9084 118.017 23.3913 118.017 23.8743V48.6981C118.017 50.0504 117.824 51.3061 117.341 52.5618C116.859 53.7209 116.28 54.6868 115.508 55.5561C114.736 56.3288 113.771 57.0049 112.613 57.3913C111.455 57.8743 110.201 58.0674 108.85 58.0674C107.595 58.0674 106.437 57.9709 105.279 57.6811C104.121 57.3913 102.963 57.0049 101.902 56.6186C101.226 56.3288 100.937 55.8459 100.937 55.0731C100.937 54.5902 101.13 54.2038 101.419 53.914C101.709 53.6243 102.095 53.4311 102.577 53.4311C102.77 53.4311 102.963 53.5277 103.253 53.6243C104.121 54.0106 105.086 54.3004 106.051 54.5902C107.016 54.8799 107.981 54.9765 108.946 54.9765C110.78 54.9765 112.131 54.397 113.192 53.3345C114.157 52.272 114.736 50.7265 114.736 48.8913L114.64 45.5106ZM114.64 24.647C112.806 24.0675 110.876 23.7777 108.946 23.7777C107.113 23.7777 105.762 24.2606 104.7 25.3231C103.639 26.3856 103.156 27.7379 103.156 29.6697V38.0731C103.156 39.9084 103.639 41.3572 104.7 42.4197C105.762 43.4822 107.113 43.9652 108.946 43.9652C110.008 43.9652 111.069 43.772 112.034 43.3856C112.999 42.9993 113.868 42.4197 114.64 41.7436V24.647ZM140.501 29.6697C140.501 27.8345 140.018 26.3856 138.957 25.3231C137.992 24.2606 136.544 23.7777 134.711 23.7777C132.492 23.7777 130.562 24.5504 128.921 25.9993V45.414C128.921 45.897 128.728 46.2834 128.439 46.6697C128.149 46.9595 127.667 47.1527 127.184 47.1527C126.702 47.1527 126.316 46.9595 125.93 46.6697C125.64 46.38 125.447 45.897 125.447 45.414V12.0902C125.447 11.6072 125.64 11.2209 125.93 10.8345C126.219 10.5447 126.702 10.3516 127.184 10.3516C127.667 10.3516 128.053 10.5447 128.439 10.8345C128.728 11.1243 128.921 11.6072 128.921 12.0902V22.1356C129.79 21.6527 130.755 21.2663 131.72 21.0731C132.685 20.7834 133.746 20.6868 134.711 20.6868C136.062 20.6868 137.316 20.88 138.474 21.3629C139.632 21.8459 140.597 22.4254 141.369 23.2947C142.141 24.0675 142.817 25.0334 143.203 26.2891C143.685 27.4481 143.878 28.7038 143.878 30.1527V45.8004C143.878 46.2834 143.685 46.6697 143.396 47.0561C143.106 47.4425 142.624 47.539 142.141 47.539C141.659 47.539 141.273 47.3459 140.887 47.0561C140.597 46.7663 140.404 46.2834 140.404 45.8004V29.6697H140.501ZM151.405 27.6413C151.405 26.5788 151.598 25.6129 151.887 24.8402C152.177 24.0675 152.756 23.2947 153.335 22.6186C153.914 21.9425 154.589 21.5561 155.458 21.1697C156.23 20.88 157.098 20.6868 158.063 20.6868C159.221 20.6868 160.379 20.7834 161.73 21.0731C162.116 21.1697 162.502 21.3629 162.695 21.6527C162.985 21.9425 163.081 22.3288 163.081 22.7152C163.081 23.1981 162.888 23.5845 162.599 23.8743C162.309 24.1641 161.827 24.3572 161.344 24.3572C161.248 24.3572 161.055 24.3572 160.958 24.2606C160.862 24.2606 160.669 24.1641 160.476 24.1641C160.09 24.0675 159.704 24.0675 159.318 23.9709C158.932 23.8743 158.546 23.8743 158.063 23.8743C157.195 23.8743 156.423 24.1641 155.844 24.8402C155.265 25.4197 154.879 26.2891 154.879 27.4481V45.5106C154.879 45.9936 154.686 46.38 154.396 46.7663C154.107 47.0561 153.624 47.2493 153.142 47.2493C152.659 47.2493 152.273 47.0561 151.887 46.7663C151.501 46.4765 151.405 45.9936 151.405 45.5106V27.6413ZM184.118 43.772C184.118 44.255 183.925 44.7379 183.635 45.1243C183.346 45.5106 182.96 45.8004 182.477 45.9936C181.223 46.38 180.065 46.6697 178.81 46.9595C177.556 47.1527 176.301 47.2493 174.95 47.2493C171.862 47.2493 169.546 46.5731 168.002 45.1243C166.555 43.772 165.783 41.8402 165.783 39.4254C165.783 37.1072 166.555 35.0788 168.002 33.7266C168.774 33.0504 169.739 32.4709 170.897 32.1811C172.055 31.8913 173.406 31.6981 174.95 31.6981H180.644V28.4141C180.644 26.8686 180.161 25.8061 179.196 24.9368C178.231 24.0675 176.977 23.7777 175.336 23.7777C174.371 23.7777 173.31 23.8743 172.441 24.1641C171.476 24.4538 170.511 24.8402 169.546 25.4197C169.257 25.6129 168.967 25.7095 168.774 25.7095C168.292 25.7095 167.906 25.6129 167.52 25.3231C167.231 25.0334 167.038 24.647 167.038 24.1641C167.038 23.4879 167.327 23.005 167.906 22.6186C169.064 21.8459 170.318 21.3629 171.573 21.0731C172.827 20.7834 174.082 20.5902 175.336 20.5902C176.494 20.5902 177.652 20.7834 178.714 21.0731C179.775 21.3629 180.74 21.8459 181.512 22.522C182.284 23.1981 182.96 23.9709 183.442 24.9368C183.925 25.9027 184.118 26.9652 184.118 28.4141V43.772ZM180.74 34.8856H175.047C173.792 34.8856 172.731 34.9822 171.959 35.272C171.187 35.5618 170.608 35.8516 170.222 36.3345C169.836 36.8175 169.546 37.2038 169.45 37.7834C169.353 38.2663 169.257 38.8459 169.257 39.3288C169.257 39.8118 169.353 40.3913 169.45 40.8743C169.546 41.4538 169.836 41.9368 170.222 42.3231C170.608 42.7095 171.187 43.1925 171.959 43.3856C172.731 43.6754 173.792 43.772 175.047 43.772C176.977 43.772 178.907 43.4822 180.74 42.9027V34.8856ZM200.812 47.2493C199.461 47.2493 198.206 47.0561 197.048 46.5731C195.89 46.0902 194.925 45.5106 194.153 44.6413C193.381 43.8686 192.706 42.9027 192.32 41.647C191.837 40.4879 191.644 39.2322 191.644 37.7834V29.8629C191.644 27.0618 192.513 24.7436 194.153 23.005C195.794 21.3629 198.013 20.4936 200.812 20.4936C201.873 20.4936 202.838 20.5902 203.803 20.88C204.768 21.1697 205.733 21.5561 206.601 21.9425V12.0902C206.601 11.6072 206.794 11.2209 207.084 10.8345C207.373 10.5447 207.856 10.3516 208.338 10.3516C208.821 10.3516 209.207 10.5447 209.593 10.8345C209.882 11.1243 210.075 11.6072 210.075 12.0902V43.6754C210.075 44.1584 209.882 44.6413 209.593 45.0277C209.303 45.414 208.917 45.7038 208.435 45.897C207.18 46.2834 206.022 46.5731 204.768 46.8629C203.417 47.1527 202.163 47.2493 200.812 47.2493ZM195.022 38.1697C195.022 40.005 195.504 41.4538 196.566 42.5163C197.531 43.5788 198.978 44.0618 200.812 44.0618C202.838 44.0618 204.671 43.772 206.601 43.1925V25.8061C205.829 25.0334 204.961 24.5504 203.899 24.2606C202.934 23.9709 201.873 23.7777 200.812 23.7777C198.978 23.7777 197.627 24.2606 196.566 25.3231C195.601 26.3856 195.022 27.7379 195.022 29.6697V38.1697ZM218.085 22.3288C218.085 21.8459 218.278 21.4595 218.567 21.0731C218.857 20.7834 219.339 20.5902 219.821 20.5902C220.304 20.5902 220.69 20.7834 221.076 21.0731C221.365 21.3629 221.558 21.8459 221.558 22.3288V45.5106C221.558 45.9936 221.365 46.38 221.076 46.7663C220.786 47.0561 220.304 47.2493 219.821 47.2493C219.339 47.2493 218.953 47.0561 218.567 46.7663C218.278 46.4765 218.085 45.9936 218.085 45.5106V22.3288ZM89.9363 16.8232C89.1643 16.8232 88.5853 16.5334 88.1028 16.0504C87.6203 15.5675 87.3308 14.8913 87.3308 14.2152C87.3308 13.4425 87.6203 12.8629 88.1028 12.38C88.5853 11.897 89.2608 11.6072 89.9363 11.6072C90.7082 11.6072 91.2872 11.897 91.7697 12.38C92.2522 12.8629 92.5417 13.5391 92.5417 14.2152C92.5417 14.9879 92.2522 15.5675 91.7697 16.0504C91.2872 16.5334 90.6117 16.8232 89.9363 16.8232ZM244.525 22.3288C244.525 21.8459 244.718 21.4595 245.007 21.0731C245.297 20.7834 245.779 20.5902 246.262 20.5902C246.744 20.5902 247.13 20.7834 247.516 21.0731C247.806 21.3629 247.999 21.8459 247.999 22.3288V43.772C247.999 44.255 247.902 44.7379 247.613 45.1243C247.323 45.5106 246.937 45.8004 246.455 45.9936C245.2 46.38 244.042 46.6697 242.691 46.9595C241.437 47.1527 240.086 47.2493 238.831 47.2493C235.937 47.2493 233.717 46.38 232.077 44.7379C230.436 43.0959 229.568 40.7777 229.568 37.88V22.3288C229.568 21.8459 229.761 21.4595 230.05 21.0731C230.34 20.7834 230.822 20.5902 231.305 20.5902C231.787 20.5902 232.173 20.7834 232.559 21.0731C232.849 21.3629 233.042 21.8459 233.042 22.3288V38.1697C233.042 40.005 233.524 41.4538 234.586 42.5163C235.647 43.5788 236.998 44.0618 238.831 44.0618C240.761 44.0618 242.691 43.772 244.525 43.1925V22.3288ZM258.71 34.0163C257.552 33.5334 256.49 32.7606 255.622 31.7947C254.753 30.8288 254.271 29.38 254.271 27.5447C254.271 26.4822 254.464 25.5163 254.946 24.7436C255.429 23.8743 256.008 23.1981 256.683 22.6186C257.455 22.0391 258.324 21.5561 259.289 21.2663C260.254 20.9766 261.315 20.7834 262.473 20.7834C263.728 20.7834 264.789 20.88 265.851 21.1697C266.816 21.3629 267.781 21.7493 268.649 22.0391C269.325 22.3288 269.711 22.9084 269.711 23.6811C269.711 24.1641 269.518 24.5504 269.228 24.8402C268.939 25.13 268.456 25.2266 267.974 25.2266C267.781 25.2266 267.588 25.13 267.298 25.0334C265.754 24.2606 264.017 23.9709 262.087 23.9709C261.605 23.9709 261.122 24.0675 260.543 24.1641C260.061 24.2606 259.578 24.4538 259.192 24.7436C258.806 25.0334 258.42 25.4197 258.131 25.8061C257.841 26.2891 257.745 26.772 257.745 27.4481C257.745 28.4141 258.034 29.1868 258.613 29.7663C259.192 30.3459 259.771 30.7322 260.254 30.9254L264.982 32.8572C266.526 33.4368 267.684 34.3061 268.649 35.4652C269.614 36.6243 270 37.9765 270 39.6186C270 40.6811 269.807 41.647 269.421 42.6129C269.035 43.5788 268.456 44.3515 267.781 45.0277C267.105 45.7038 266.237 46.1868 265.175 46.5731C264.21 46.9595 263.149 47.1527 261.991 47.1527C260.64 47.1527 259.482 47.0561 258.42 46.7663C257.359 46.4765 256.297 46.1868 255.332 45.7038C254.657 45.414 254.367 44.8345 254.367 44.1584C254.367 43.6754 254.56 43.289 254.85 42.9993C255.139 42.7095 255.622 42.5163 256.104 42.5163C256.201 42.5163 256.394 42.5163 256.49 42.6129C256.587 42.6129 256.683 42.7095 256.876 42.8061C257.648 43.1925 258.517 43.4822 259.385 43.6754C260.254 43.8686 261.219 44.0618 262.184 44.0618C263.342 44.0618 264.403 43.772 265.272 43.0959C266.14 42.4197 266.623 41.5504 266.623 40.3913C266.623 39.3288 266.333 38.4595 265.851 37.88C265.368 37.3004 264.5 36.7209 263.438 36.2379L258.71 34.0163Z" fill="#222222" stroke="#222222" stroke-width="2000" mask="url(#path-1-inside-1_4_53)"/>
<path fill-rule="evenodd" clip-rule="evenodd" d="M219.531 16.8236C218.759 16.8236 218.18 16.5338 217.698 16.0509C217.215 15.5679 216.926 14.8918 216.926 14.2156C216.926 13.4429 217.215 12.8634 217.698 12.3804C218.18 11.8975 218.856 11.6077 219.531 11.6077C220.303 11.6077 220.882 11.8975 221.365 12.3804C221.847 12.8634 222.137 13.5395 222.137 14.2156C222.137 14.9884 221.847 15.5679 221.365 16.0509C220.882 16.5338 220.303 16.8236 219.531 16.8236ZM0.675781 22.2327C1.06177 17.7895 4.34267 12.5736 4.43917 12.5736C9.36053 5.1361 17.7558 0.209961 27.2125 0.209961C42.1696 0.306552 54.3282 12.5736 54.4247 27.7384C54.3282 32.9543 52.8808 37.977 50.1788 42.4202V40.2952C50.2753 34.5963 48.7314 29.0906 45.933 24.1645C41.1081 15.7611 32.2304 10.5452 22.6771 10.4486C20.9402 10.4486 19.2997 10.6418 17.5628 11.0281C10.7115 12.3804 4.63217 16.4372 0.675781 22.2327Z" fill="#EA5708"/>
<path d="M40.4325 51.4999C34.6426 51.3067 29.1423 49.2783 24.6069 45.5113C33.0987 43.676 40.4325 38.0738 44.4854 30.1533C45.9328 33.534 46.6083 37.1079 46.6083 40.8749C46.6083 42.7101 46.4153 44.6419 46.0293 46.4772L45.4503 49.1817C44.4854 50.051 43.5204 50.8238 42.4589 51.4999H40.4325Z" fill="#EA5708"/>
<path d="M26.6332 56.231C24.4138 56.231 22.1943 55.9412 20.0714 55.3617C9.45672 52.6571 1.54395 43.7708 0 32.7594C0.192994 32.373 0.385989 31.8901 0.67548 31.0208C0.771977 30.5378 0.964972 30.0549 1.25446 29.5719C3.5704 23.5833 8.29876 18.7537 14.1851 16.4355C12.6411 19.9128 11.8692 23.4867 11.8692 27.2537C11.8692 40.9696 22.0014 52.1742 35.8004 54.7821C32.9055 55.748 29.7211 56.231 26.6332 56.231Z" fill="#EA5708"/>
</svg>
