<svg width="320" height="51" viewBox="0 0 320 51" fill="none" xmlns="http://www.w3.org/2000/svg">
<path fill-rule="evenodd" clip-rule="evenodd" d="M59.3594 34.6316L61.77 27.0962H67.7245C67.8482 27.0962 67.9718 27.089 68.0954 27.0747C68.219 27.0604 68.3427 27.0461 68.4663 27.0317C68.5762 27.0031 68.6929 26.9673 68.8166 26.9244C68.9264 26.8815 69.0363 26.8314 69.1462 26.7741C69.2286 26.7312 69.3042 26.6811 69.3729 26.6238C69.4415 26.5666 69.5033 26.5022 69.5583 26.4306C69.6132 26.3734 69.6613 26.3018 69.7025 26.2159C69.7575 26.1444 69.7987 26.0657 69.8261 25.9798C69.8399 25.9082 69.8536 25.8295 69.8673 25.7436C69.8811 25.6721 69.8948 25.6005 69.9086 25.529C69.9086 25.4574 69.9086 25.3787 69.9086 25.2928C69.8948 25.2212 69.8811 25.1497 69.8673 25.0781C69.8261 24.9779 69.7849 24.8778 69.7437 24.7776C69.7025 24.6917 69.6544 24.6058 69.5995 24.5199C69.5446 24.4341 69.4896 24.3482 69.4347 24.2623C69.3797 24.1764 69.3179 24.0906 69.2492 24.0047C68.4457 23.0601 67.6833 21.9867 66.9622 20.9776C66.8111 20.7773 66.66 20.5697 66.5089 20.3551C66.3716 20.1261 66.2411 19.8971 66.1174 19.6681C66.0076 19.4391 65.9045 19.2029 65.8084 18.9596C65.6985 18.7163 65.6092 18.4658 65.5405 18.2082C65.4719 17.9649 65.4169 17.7073 65.3757 17.4354C65.3482 17.1777 65.3345 16.913 65.3345 16.641C65.3482 16.3691 65.3826 16.1043 65.4375 15.8467C65.4787 15.5891 65.5474 15.3314 65.6436 15.0738C65.8359 14.4441 66.09 13.8358 66.4059 13.249C66.7218 12.6765 67.0858 12.1398 67.4979 11.6389C67.9237 11.1379 68.3907 10.6871 68.899 10.2864C69.4072 9.88562 69.9498 9.54213 70.5267 9.25588C70.9387 9.0412 71.3646 8.85514 71.8041 8.6977C72.2437 8.52595 72.6901 8.38999 73.1434 8.2898C73.5829 8.1753 74.0362 8.09658 74.5032 8.05365C74.9565 7.9964 75.4167 7.96777 75.8837 7.96777H83.8162L81.4261 15.4603H76.1309C74.9565 15.4603 74.2354 15.7823 73.9263 16.3619C73.94 16.4764 73.9538 16.5838 73.9675 16.684C73.995 16.7841 74.0293 16.8843 74.0705 16.9845C74.1117 17.0847 74.1598 17.1849 74.2148 17.2851C74.2697 17.3709 74.3315 17.4568 74.4002 17.5427C74.7299 17.8576 75.0527 18.1724 75.3686 18.4873C75.6845 18.8165 76.0004 19.1528 76.3164 19.4963C76.6185 19.8255 76.9207 20.1618 77.2229 20.5053C77.5251 20.8631 77.8204 21.221 78.1089 21.5788C78.3699 21.9366 78.5828 22.323 78.7476 22.7381C78.9125 23.1531 79.0292 23.5825 79.0979 24.0262C79.1666 24.4698 79.1803 24.9135 79.1391 25.3572C79.0979 25.8009 79.0086 26.2374 78.8712 26.6668L78.624 27.5685C78.418 28.1696 78.1638 28.7349 77.8616 29.2645C77.5595 29.8083 77.2092 30.3164 76.8109 30.7887C76.3988 31.2467 75.9524 31.6618 75.4716 32.0339C74.9908 32.406 74.4757 32.728 73.9263 33C73.4181 33.2719 72.8893 33.5152 72.3398 33.7299C71.7904 33.9303 71.2341 34.102 70.6709 34.2451C70.1077 34.3883 69.5377 34.4885 68.9608 34.5457C68.3701 34.6173 67.7864 34.6459 67.2095 34.6316H59.3594Z" fill="#222222"/>
<path fill-rule="evenodd" clip-rule="evenodd" d="M85.5668 9.62012H92.84L90.9238 15.6098H94.9416L92.84 22.1362H88.8222L87.6478 25.8717C87.1533 27.5033 87.6478 28.2977 89.1313 28.2977H90.9238L88.9252 34.6309H84.8457C84.571 34.6452 84.2894 34.6452 84.0009 34.6309C83.7125 34.6165 83.424 34.5879 83.1356 34.545C82.8608 34.502 82.5861 34.4448 82.3114 34.3732C82.0367 34.2874 81.762 34.1943 81.4872 34.0941C81.2949 33.994 81.1164 33.8795 80.9515 33.7506C80.773 33.6075 80.615 33.4572 80.4777 33.2998C80.3266 33.1281 80.1892 32.9492 80.0656 32.7631C79.942 32.577 79.8389 32.3838 79.7565 32.1835C79.6878 31.9974 79.626 31.8113 79.5711 31.6253C79.5161 31.4249 79.4749 31.2317 79.4475 31.0456C79.42 30.8452 79.4062 30.6449 79.4062 30.4445C79.4062 30.2441 79.42 30.0438 79.4475 29.8434C79.4749 29.643 79.5024 29.4426 79.5299 29.2423C79.5573 29.0419 79.5917 28.8415 79.6329 28.6412C79.6604 28.4408 79.7016 28.2404 79.7565 28.04C79.7977 27.8397 79.8458 27.6465 79.9007 27.4604L85.5668 9.62012Z" fill="#222222"/>
<path fill-rule="evenodd" clip-rule="evenodd" d="M103.509 27.3532L101.098 34.8457C101.016 34.86 100.934 34.8743 100.851 34.8887C100.769 34.903 100.686 34.9101 100.604 34.9101C100.522 34.9244 100.432 34.9316 100.336 34.9316C100.254 34.9459 100.171 34.9531 100.089 34.9531C99.9928 34.9674 99.8966 34.9745 99.8004 34.9745C99.7043 34.9888 99.6081 34.996 99.512 34.996C99.4021 34.996 99.2991 34.996 99.2029 34.996C99.1068 35.0103 99.0106 35.0103 98.9145 34.996C98.3376 35.0604 97.7813 35.0389 97.2044 34.9316C96.6481 34.8457 96.0918 34.674 95.5767 34.4164C95.0616 34.1802 94.5671 33.8582 94.1344 33.4932C93.6811 33.1068 93.2896 32.6774 92.96 32.2051C92.6578 31.6612 92.4174 31.0959 92.2388 30.5091C92.0603 29.9223 91.9504 29.314 91.9092 28.6843C91.868 28.0689 91.8954 27.4534 91.9916 26.838C92.1015 26.2369 92.2732 25.6501 92.5067 25.0776C92.7265 24.3477 93.0012 23.6464 93.3308 22.9737C93.6605 22.2867 94.0382 21.6355 94.464 21.02C94.9036 20.4046 95.3844 19.8321 95.9063 19.3026C96.4283 18.773 96.9915 18.2864 97.5958 17.8427C98.1727 17.399 98.784 17.0126 99.4296 16.6834C100.061 16.3399 100.721 16.0537 101.408 15.8247C102.094 15.5814 102.795 15.4025 103.509 15.288C104.223 15.1878 104.938 15.1377 105.652 15.1377C108.969 15.1377 111.153 16.3614 112.163 18.8088C112.396 19.4385 112.568 20.0897 112.678 20.7624C112.788 21.4351 112.836 22.1149 112.822 22.8019C112.808 23.4889 112.733 24.1616 112.595 24.82C112.458 25.4926 112.266 26.1438 112.019 26.7736L109.525 34.631H102.129L105.137 25.1205C105.206 24.9631 105.254 24.7985 105.281 24.6267C105.309 24.4693 105.315 24.3047 105.302 24.133C105.288 23.9612 105.254 23.7895 105.199 23.6177C105.144 23.4603 105.075 23.31 104.993 23.1669C104.883 23.0524 104.766 22.9451 104.642 22.8449C104.519 22.759 104.388 22.6874 104.251 22.6302C104.114 22.5586 103.969 22.5157 103.818 22.5014C103.667 22.4727 103.516 22.4584 103.365 22.4584C103.173 22.4584 102.987 22.4799 102.809 22.5228C102.616 22.5515 102.431 22.5944 102.252 22.6516C102.074 22.7089 101.902 22.7805 101.737 22.8663C101.572 22.9522 101.414 23.0524 101.263 23.1669C101.112 23.2671 100.961 23.3816 100.81 23.5104C100.673 23.6392 100.549 23.7823 100.439 23.9398C100.316 24.0972 100.206 24.2618 100.11 24.4335C100.027 24.6053 99.9515 24.7842 99.8829 24.9702C99.8142 25.142 99.7661 25.3137 99.7386 25.4855C99.6974 25.6715 99.6768 25.8504 99.6768 26.0222C99.6768 26.2083 99.6974 26.3943 99.7386 26.5804C99.7661 26.7521 99.8142 26.9239 99.8829 27.0956C99.9653 27.2387 100.061 27.3604 100.171 27.4606C100.281 27.5751 100.405 27.6681 100.542 27.7397C100.68 27.8112 100.824 27.8613 100.975 27.8899C101.126 27.9043 101.277 27.9043 101.428 27.8899C101.82 27.847 102.191 27.7826 102.397 27.7397C102.493 27.711 102.582 27.6824 102.664 27.6538C102.761 27.6252 102.857 27.5965 102.953 27.5679C103.049 27.5393 103.145 27.5107 103.241 27.482C103.324 27.4391 103.413 27.3962 103.509 27.3532Z" fill="#222222"/>
<path fill-rule="evenodd" clip-rule="evenodd" d="M111.324 34.6316L119.834 7.96777H127.066L118.597 34.6316H111.324Z" fill="#222222"/>
<path fill-rule="evenodd" clip-rule="evenodd" d="M117.773 42.2738L122.677 26.9239C122.911 26.1367 123.192 25.371 123.522 24.6267C123.852 23.8825 124.229 23.1597 124.655 22.4584C125.081 21.7571 125.548 21.0916 126.056 20.4619C126.578 19.8321 127.128 19.2453 127.705 18.7015C128.24 18.1433 128.817 17.6495 129.435 17.2201C130.053 16.7765 130.699 16.4043 131.372 16.1038C132.059 15.8032 132.766 15.5671 133.494 15.3953C134.222 15.2379 134.957 15.152 135.699 15.1377C138.975 15.1377 141.159 16.1467 142.374 18.1647C143.508 20.0325 143.611 22.4799 142.642 25.4425C142.45 26.0437 142.23 26.6233 141.983 27.1815C141.722 27.754 141.434 28.305 141.118 28.8346C140.788 29.3641 140.431 29.865 140.046 30.3374C139.662 30.824 139.25 31.282 138.81 31.7113C138.274 32.2695 137.684 32.7633 137.038 33.1927C136.392 33.622 135.719 33.987 135.019 34.2875C134.305 34.5881 133.577 34.8099 132.835 34.9531C132.079 35.0962 131.324 35.1678 130.568 35.1678C130.472 35.1534 130.376 35.1463 130.28 35.1463C130.184 35.132 130.095 35.1248 130.012 35.1248C129.916 35.1105 129.82 35.1033 129.724 35.1033C129.628 35.1033 129.531 35.1033 129.435 35.1033C129.044 35.0604 128.632 34.996 128.281 34.9531L130.61 27.4606C130.72 27.5321 130.836 27.5965 130.96 27.6538C131.084 27.6967 131.207 27.7397 131.331 27.7826C131.454 27.8255 131.578 27.8613 131.702 27.89C131.839 27.9186 131.97 27.9329 132.093 27.9329C132.299 27.9329 132.505 27.9186 132.711 27.89C132.904 27.847 133.103 27.7969 133.309 27.7397C133.501 27.6681 133.687 27.5822 133.865 27.4821C134.044 27.3819 134.215 27.2674 134.38 27.1386C134.559 27.0097 134.724 26.8595 134.875 26.6877C135.026 26.5303 135.17 26.3585 135.307 26.1725C135.431 25.9864 135.548 25.7932 135.658 25.5928C135.754 25.3925 135.843 25.1849 135.925 24.9702C135.98 24.8128 136.022 24.6554 136.049 24.4979C136.077 24.3262 136.09 24.1616 136.09 24.0042C136.077 23.8324 136.049 23.6678 136.008 23.5104C135.953 23.353 135.891 23.2027 135.822 23.0596C135.726 22.9307 135.616 22.8162 135.493 22.7161C135.369 22.6159 135.239 22.53 135.101 22.4584C134.95 22.3869 134.799 22.3439 134.648 22.3296C134.497 22.301 134.346 22.2938 134.195 22.3082C133.989 22.3082 133.79 22.3296 133.597 22.3726C133.391 22.4012 133.199 22.4513 133.02 22.5228C132.828 22.6087 132.649 22.7017 132.485 22.8019C132.306 22.9021 132.141 23.0238 131.99 23.1669C131.798 23.3243 131.619 23.4961 131.454 23.6821C131.29 23.8682 131.138 24.0686 131.001 24.2833C130.878 24.4979 130.761 24.7198 130.651 24.9488C130.555 25.1778 130.479 25.4139 130.424 25.6572L125.108 42.2738H117.773Z" fill="#222222"/>
<path fill-rule="evenodd" clip-rule="evenodd" d="M140.289 34.631L146.367 15.61H153.331L152.631 17.9501C152.837 17.6924 153.057 17.4491 153.29 17.2201C153.524 16.9911 153.771 16.7764 154.032 16.5761C154.307 16.39 154.581 16.2111 154.856 16.0394C155.144 15.8819 155.44 15.7388 155.742 15.61C155.975 15.5241 156.216 15.4526 156.463 15.3953C156.71 15.3237 156.958 15.2665 157.205 15.2236C157.466 15.1949 157.72 15.1663 157.967 15.1377C158.228 15.1234 158.482 15.1234 158.73 15.1377H160.46L158.379 21.6641C157.981 21.6498 157.583 21.6498 157.184 21.6641C156.786 21.6927 156.388 21.7357 155.989 21.7929C155.591 21.8502 155.193 21.9217 154.794 22.0076C154.41 22.1078 154.025 22.2294 153.64 22.3726C153.201 22.5872 152.782 22.8449 152.384 23.1454C151.999 23.4603 151.649 23.8181 151.333 24.2188C151.017 24.6196 150.749 25.049 150.529 25.5069C150.309 25.9649 150.145 26.4372 150.035 26.9239L147.583 34.631H140.289Z" fill="#222222"/>
<path fill-rule="evenodd" clip-rule="evenodd" d="M157.457 25.0778C157.69 24.3765 157.972 23.6967 158.301 23.0383C158.631 22.3943 159.002 21.7717 159.414 21.1706C159.84 20.5694 160.3 20.0113 160.795 19.496C161.303 18.9808 161.838 18.5013 162.402 18.0576C162.937 17.5996 163.501 17.1989 164.091 16.8554C164.682 16.4976 165.3 16.197 165.946 15.9537C166.591 15.6961 167.244 15.5029 167.903 15.3741C168.576 15.231 169.256 15.1522 169.943 15.1379C170.54 15.095 171.138 15.1165 171.735 15.2238C172.312 15.3311 172.889 15.5244 173.445 15.782C173.981 16.0396 174.496 16.3831 174.949 16.791C175.403 17.1989 175.815 17.6497 176.165 18.165C176.453 18.6516 176.68 19.1668 176.845 19.7107C177.024 20.2689 177.133 20.8342 177.175 21.4067C177.216 21.9792 177.195 22.5445 177.113 23.1027C177.03 23.6752 176.879 24.2262 176.66 24.7558C176.426 25.5286 176.138 26.28 175.794 27.01C175.437 27.7399 175.025 28.4269 174.558 29.0709C174.091 29.7293 173.576 30.3447 173.013 30.9172C172.463 31.4754 171.866 31.9906 171.22 32.463C170.671 32.9066 170.094 33.3002 169.489 33.6437C168.885 33.9872 168.26 34.2735 167.614 34.5025C166.969 34.7458 166.303 34.9318 165.616 35.0606C164.943 35.1894 164.263 35.261 163.576 35.2753C163.068 35.2896 162.566 35.2467 162.072 35.1465C161.577 35.0463 161.104 34.8889 160.65 34.6742C160.183 34.4452 159.751 34.1733 159.352 33.8584C158.954 33.5435 158.597 33.1786 158.281 32.7635C156.756 30.8099 156.447 28.2551 157.457 25.0778ZM164.75 25.0778C164.682 25.2066 164.634 25.3497 164.606 25.5072C164.579 25.6503 164.572 25.8006 164.586 25.958C164.586 26.1011 164.606 26.2514 164.647 26.4089C164.675 26.552 164.723 26.6879 164.792 26.8168C164.874 26.9456 164.963 27.0529 165.06 27.1388C165.156 27.239 165.266 27.3177 165.389 27.3749C165.513 27.4465 165.643 27.4966 165.781 27.5252C165.904 27.5538 166.035 27.5681 166.172 27.5681C166.351 27.5681 166.522 27.5538 166.687 27.5252C166.852 27.4966 167.017 27.4537 167.182 27.3964C167.347 27.3392 167.505 27.2747 167.656 27.2032C167.82 27.1173 167.972 27.0243 168.109 26.9241C168.26 26.8239 168.404 26.7023 168.542 26.5591C168.679 26.4303 168.803 26.2872 168.912 26.1298C169.022 25.9866 169.125 25.8292 169.222 25.6575C169.304 25.4857 169.373 25.3068 169.428 25.1207C169.483 24.9776 169.524 24.8273 169.551 24.6699C169.565 24.5268 169.565 24.3765 169.551 24.2191C169.537 24.0616 169.503 23.9114 169.448 23.7682C169.393 23.6251 169.318 23.4891 169.222 23.3603C169.153 23.2601 169.064 23.16 168.954 23.0598C168.858 22.9739 168.748 22.9023 168.624 22.8451C168.5 22.7878 168.377 22.7449 168.253 22.7163C168.116 22.6877 167.985 22.6733 167.862 22.6733C167.683 22.6733 167.511 22.6877 167.347 22.7163C167.182 22.7449 167.017 22.7878 166.852 22.8451C166.687 22.9167 166.536 22.9954 166.399 23.0812C166.248 23.1671 166.103 23.2601 165.966 23.3603C165.829 23.4605 165.691 23.575 165.554 23.7038C165.43 23.8326 165.314 23.9686 165.204 24.1117C165.108 24.2549 165.018 24.4051 164.936 24.5626C164.854 24.72 164.792 24.8917 164.75 25.0778Z" fill="#222222"/>
<path fill-rule="evenodd" clip-rule="evenodd" d="M194.994 7.96777H202.37L197.425 23.4251C197.192 24.2265 196.903 25.0137 196.56 25.7866C196.217 26.5451 195.825 27.2822 195.386 27.9978C194.946 28.7134 194.465 29.3861 193.943 30.0159C193.408 30.6599 192.838 31.261 192.233 31.8192C191.656 32.3488 191.031 32.8211 190.358 33.2361C189.699 33.6512 189.005 34.0018 188.277 34.2881C187.549 34.56 186.801 34.7675 186.031 34.9107C185.276 35.0538 184.507 35.1182 183.724 35.1039C183.168 35.1683 182.591 35.1468 182.034 35.0395C181.478 34.9321 180.922 34.7389 180.407 34.4813C179.885 34.2237 179.411 33.9017 178.985 33.5152C178.552 33.1288 178.181 32.678 177.872 32.1842C177.556 31.6403 177.309 31.0678 177.131 30.4667C176.952 29.8513 176.849 29.2287 176.822 28.5989C176.78 27.9692 176.815 27.3395 176.925 26.7097C177.034 26.0943 177.213 25.4932 177.46 24.9064L177.501 24.6488C177.721 23.9618 177.982 23.2891 178.284 22.6307C178.6 21.9867 178.957 21.3712 179.356 20.7844C179.754 20.1976 180.201 19.6395 180.695 19.1099C181.176 18.5947 181.691 18.1223 182.24 17.693C182.776 17.2779 183.346 16.9058 183.95 16.5766C184.541 16.2617 185.152 15.997 185.784 15.7823C186.43 15.5676 187.082 15.403 187.742 15.2885C188.401 15.1883 189.067 15.1382 189.74 15.1382C190.132 15.1382 190.503 15.1812 190.853 15.1812C190.949 15.2098 191.038 15.2241 191.121 15.2241C191.217 15.2384 191.306 15.2527 191.388 15.267C191.471 15.267 191.56 15.2742 191.656 15.2885C191.739 15.2885 191.828 15.2885 191.924 15.2885L189.534 22.7381C189.465 22.7094 189.404 22.6808 189.349 22.6522C189.294 22.6236 189.239 22.6021 189.184 22.5878C189.115 22.5735 189.053 22.5592 188.998 22.5448C188.93 22.5305 188.868 22.5234 188.813 22.5234C188.731 22.4948 188.648 22.4733 188.566 22.459C188.497 22.4303 188.422 22.4089 188.339 22.3946C188.257 22.3803 188.174 22.3731 188.092 22.3731C188.009 22.3588 187.927 22.3516 187.845 22.3516C187.652 22.3516 187.453 22.3731 187.247 22.416C187.055 22.4447 186.869 22.4948 186.691 22.5663C186.498 22.6379 186.313 22.7237 186.134 22.8239C185.97 22.9241 185.812 23.0386 185.661 23.1674C185.482 23.2962 185.324 23.4465 185.187 23.6183C185.036 23.7757 184.905 23.9475 184.795 24.1335C184.672 24.3196 184.562 24.5128 184.466 24.7132C184.369 24.9135 184.287 25.1211 184.218 25.3357C184.163 25.4789 184.122 25.6291 184.095 25.7866C184.067 25.944 184.067 26.1086 184.095 26.2804C184.108 26.4378 184.143 26.5881 184.198 26.7312C184.253 26.8743 184.328 27.0103 184.424 27.1391C184.534 27.2679 184.651 27.3752 184.775 27.4611C184.898 27.5613 185.029 27.64 185.166 27.6973C185.303 27.7688 185.448 27.8189 185.599 27.8475C185.75 27.8762 185.901 27.8905 186.052 27.8905C186.244 27.8905 186.43 27.8762 186.608 27.8475C186.801 27.8046 186.986 27.7545 187.165 27.6973C187.343 27.64 187.515 27.5613 187.68 27.4611C187.845 27.3752 188.003 27.2679 188.154 27.1391C188.332 27.0103 188.497 26.8672 188.648 26.7097C188.799 26.538 188.937 26.3591 189.06 26.173C189.184 25.987 189.294 25.7937 189.39 25.5934C189.486 25.393 189.562 25.1855 189.617 24.9708L194.994 7.96777Z" fill="#222222"/>
<path fill-rule="evenodd" clip-rule="evenodd" d="M201.566 15.6104H208.901L205.481 26.409C205.453 26.4949 205.426 26.5879 205.398 26.6881C205.385 26.7883 205.378 26.8884 205.378 26.9886C205.378 27.0888 205.385 27.189 205.398 27.2892C205.426 27.3894 205.453 27.4824 205.481 27.5683C205.522 27.6398 205.57 27.7114 205.625 27.783C205.68 27.8402 205.742 27.8903 205.81 27.9332C205.879 27.9762 205.948 28.012 206.017 28.0406C206.099 28.0692 206.181 28.0907 206.264 28.105C206.36 28.0907 206.463 28.0692 206.573 28.0406C206.669 28.012 206.765 27.9762 206.861 27.9332C206.971 27.9046 207.067 27.8617 207.15 27.8044C207.246 27.7472 207.335 27.6828 207.418 27.6112C207.514 27.5253 207.596 27.4323 207.665 27.3321C207.747 27.2176 207.816 27.1103 207.871 27.0101C207.94 26.8956 208.001 26.7739 208.056 26.6451C208.111 26.5306 208.152 26.4161 208.18 26.3016L211.6 15.6104H218.832L215.371 26.6022C215.178 27.2319 214.945 27.8402 214.67 28.427C214.382 29.0138 214.052 29.572 213.681 30.1015C213.31 30.6311 212.905 31.132 212.466 31.6043C212.026 32.0623 211.552 32.4845 211.044 32.871C210.522 33.2574 209.979 33.5866 209.416 33.8585C208.839 34.1448 208.249 34.3881 207.644 34.5885C207.04 34.7745 206.422 34.9105 205.79 34.9964C205.172 35.0822 204.547 35.118 203.915 35.1037C201.422 35.1037 199.588 34.4167 198.517 32.9783C197.342 31.5614 197.177 29.436 198.043 26.6666L201.566 15.6104Z" fill="#222222"/>
<path fill-rule="evenodd" clip-rule="evenodd" d="M214.652 34.6316L223.1 7.96777H230.394L226.149 21.2997C226.767 21.2997 227.53 20.6771 228.395 19.389C229.219 18.1223 230.085 16.8342 230.847 15.6105H238.326C237.008 17.6286 235.998 19.1314 235.277 20.1404C235.043 20.5125 234.782 20.8703 234.494 21.2138C234.219 21.543 233.924 21.8579 233.608 22.1584C233.292 22.459 232.955 22.7381 232.598 22.9957C232.255 23.2533 231.891 23.4895 231.506 23.7041C232.722 24.4341 233.484 25.1211 233.69 25.7651C234.102 26.8385 233.896 28.5775 233.134 31.0678L231.96 34.6316H224.645L226.417 29.1142C226.472 28.9997 226.506 28.878 226.52 28.7492C226.534 28.6204 226.527 28.4916 226.5 28.3628C226.472 28.234 226.424 28.1123 226.355 27.9978C226.287 27.8976 226.204 27.8046 226.108 27.7187C225.971 27.6472 225.827 27.5756 225.675 27.5041C225.524 27.4468 225.366 27.4039 225.202 27.3752C225.037 27.3323 224.872 27.3037 224.707 27.2894C224.556 27.2894 224.398 27.2965 224.233 27.3108L221.925 34.6316H214.652Z" fill="#222222"/>
<path fill-rule="evenodd" clip-rule="evenodd" d="M241.23 9.62012H248.503L246.587 15.6098H250.605L248.524 22.1362H244.485L243.311 25.8717C242.816 27.5033 243.311 28.2977 244.794 28.2977H246.587L244.588 34.6309H240.509C240.234 34.6452 239.952 34.6452 239.664 34.6309C239.375 34.6165 239.094 34.5879 238.819 34.545C238.531 34.502 238.249 34.4448 237.974 34.3732C237.7 34.2874 237.425 34.1943 237.15 34.0941C236.958 33.994 236.779 33.8795 236.615 33.7506C236.436 33.6075 236.278 33.4572 236.141 33.2998C235.99 33.1281 235.852 32.9492 235.729 32.7631C235.619 32.577 235.516 32.3838 235.42 32.1835C235.351 31.9974 235.289 31.8113 235.234 31.6253C235.179 31.4249 235.138 31.2317 235.11 31.0456C235.097 30.8452 235.09 30.6449 235.09 30.4445C235.09 30.2441 235.097 30.0438 235.11 29.8434C235.138 29.643 235.165 29.4426 235.193 29.2423C235.22 29.0419 235.255 28.8415 235.296 28.6412C235.323 28.4408 235.365 28.2404 235.42 28.04C235.461 27.8397 235.516 27.6465 235.584 27.4604L241.23 9.62012Z" fill="#222222"/>
<path fill-rule="evenodd" clip-rule="evenodd" d="M259.668 34.6316L262.058 27.0962H268.013C268.136 27.0962 268.26 27.089 268.383 27.0747C268.493 27.0604 268.61 27.0461 268.734 27.0317C268.844 27.0031 268.953 26.9673 269.063 26.9244C269.173 26.8815 269.283 26.8314 269.393 26.7741C269.475 26.7312 269.551 26.6811 269.62 26.6238C269.688 26.5666 269.757 26.5022 269.826 26.4306C269.881 26.3734 269.936 26.3018 269.991 26.2159C270.032 26.1444 270.073 26.0657 270.114 25.9798C270.128 25.9082 270.142 25.8295 270.155 25.7436C270.169 25.6721 270.183 25.6005 270.197 25.529C270.197 25.4574 270.197 25.3787 270.197 25.2928C270.183 25.2212 270.169 25.1497 270.155 25.0781C270.114 24.9779 270.073 24.8778 270.032 24.7776C269.977 24.6917 269.922 24.5987 269.867 24.4985C269.812 24.4126 269.757 24.3267 269.702 24.2409C269.633 24.155 269.565 24.0763 269.496 24.0047C268.734 23.0601 267.971 21.9867 267.25 20.9776C267.085 20.7773 266.934 20.5697 266.797 20.3551C266.66 20.1261 266.529 19.8971 266.405 19.6681C266.296 19.4391 266.186 19.2029 266.076 18.9596C265.98 18.7163 265.897 18.4658 265.829 18.2082C265.746 17.9649 265.691 17.7073 265.664 17.4354C265.636 17.1777 265.622 16.913 265.622 16.641C265.636 16.3691 265.664 16.1043 265.705 15.8467C265.76 15.5891 265.835 15.3314 265.932 15.0738C266.124 14.4441 266.371 13.8358 266.673 13.249C266.989 12.6765 267.36 12.1327 267.786 11.6174C268.198 11.1165 268.665 10.6656 269.187 10.2649C269.695 9.86415 270.238 9.52781 270.815 9.25588C271.227 9.0412 271.653 8.85514 272.092 8.6977C272.532 8.52595 272.971 8.38999 273.411 8.2898C273.864 8.18961 274.324 8.1109 274.791 8.05365C275.244 7.9964 275.705 7.96777 276.172 7.96777H284.104L281.714 15.4603H276.419C275.244 15.4603 274.482 15.7823 274.214 16.3619C274.228 16.4764 274.242 16.5838 274.255 16.684C274.283 16.7841 274.317 16.8843 274.359 16.9845C274.4 17.0847 274.448 17.1849 274.503 17.2851C274.558 17.3709 274.619 17.4568 274.688 17.5427C275.018 17.8576 275.341 18.1724 275.657 18.4873C275.972 18.8165 276.288 19.1528 276.604 19.4963C276.907 19.8255 277.209 20.1618 277.511 20.5053C277.813 20.8631 278.108 21.221 278.397 21.5788C278.658 21.9366 278.871 22.323 279.036 22.7381C279.2 23.1531 279.317 23.5825 279.386 24.0262C279.455 24.4698 279.468 24.9135 279.427 25.3572C279.4 25.8009 279.31 26.2374 279.159 26.6668L278.912 27.5685C278.706 28.1553 278.452 28.7206 278.15 29.2645C277.834 29.8083 277.477 30.3093 277.078 30.7673C276.68 31.2396 276.24 31.6618 275.76 32.0339C275.279 32.406 274.764 32.728 274.214 33C273.706 33.2719 273.177 33.5152 272.628 33.7299C272.078 33.9303 271.522 34.102 270.959 34.2451C270.396 34.3883 269.826 34.4885 269.249 34.5457C268.658 34.6173 268.074 34.6459 267.497 34.6316H259.668Z" fill="#222222"/>
<path fill-rule="evenodd" clip-rule="evenodd" d="M278.276 30.3377C278.372 30.0085 278.489 29.7008 278.626 29.4145C278.777 29.1139 278.949 28.8277 279.141 28.5558C279.334 28.2981 279.546 28.0548 279.78 27.8258C280.014 27.5968 280.261 27.3893 280.522 27.2033C280.769 27.0172 281.023 26.8598 281.284 26.731C281.559 26.5878 281.84 26.4662 282.129 26.366C282.404 26.2801 282.692 26.2086 282.994 26.1513C283.283 26.1084 283.578 26.0869 283.88 26.0869C284.127 26.0583 284.368 26.0583 284.601 26.0869C284.849 26.1298 285.089 26.1942 285.322 26.2801C285.542 26.366 285.755 26.4733 285.961 26.6021C286.167 26.7453 286.359 26.9099 286.538 27.0959C286.703 27.3249 286.833 27.5754 286.93 27.8473C287.039 28.1049 287.108 28.3769 287.136 28.6631C287.163 28.9494 287.156 29.2356 287.115 29.5218C287.074 29.8081 286.998 30.08 286.888 30.3377C286.792 30.6811 286.662 31.0175 286.497 31.3467C286.346 31.6758 286.167 31.9907 285.961 32.2913C285.755 32.5775 285.522 32.8495 285.261 33.1071C285.013 33.3647 284.739 33.5937 284.436 33.7941C284.203 33.9801 283.949 34.1447 283.674 34.2878C283.413 34.4453 283.138 34.5741 282.85 34.6743C282.562 34.7601 282.273 34.8317 281.985 34.889C281.682 34.9319 281.38 34.9534 281.078 34.9534C280.831 34.982 280.59 34.9748 280.357 34.9319C280.11 34.889 279.876 34.8174 279.656 34.7172C279.437 34.617 279.231 34.4882 279.038 34.3308C278.846 34.1733 278.674 33.9944 278.523 33.7941C278.372 33.5364 278.248 33.2645 278.152 32.9783C278.056 32.692 277.994 32.3986 277.967 32.0981C277.939 31.7975 277.953 31.4969 278.008 31.1964C278.063 30.8958 278.152 30.6096 278.276 30.3377Z" fill="#222222"/>
<path fill-rule="evenodd" clip-rule="evenodd" d="M289.238 34.6322L294.636 17.6721C294.856 16.9851 295.124 16.3196 295.44 15.6755C295.756 15.0172 296.113 14.3946 296.511 13.8078C296.924 13.2067 297.37 12.6413 297.851 12.1118C298.345 11.5965 298.867 11.1171 299.417 10.6734C299.98 10.1725 300.584 9.72162 301.23 9.32088C301.862 8.93445 302.528 8.60526 303.228 8.33333C303.915 8.0614 304.622 7.85387 305.35 7.71075C306.092 7.56762 306.834 7.48891 307.576 7.47459C308.111 7.43166 308.647 7.45312 309.183 7.539C309.732 7.62487 310.254 7.77515 310.749 7.98984C311.257 8.19021 311.738 8.44783 312.191 8.7627C312.644 9.09188 313.056 9.464 313.427 9.87906C315.014 11.7253 315.261 14.4304 314.148 17.9512L308.853 34.6107H300.859L303.455 26.4312H301.044L303.187 19.6901H305.598L306.401 17.1354C306.456 17.0209 306.497 16.8992 306.525 16.7704C306.552 16.6559 306.566 16.5271 306.566 16.384C306.552 16.2552 306.532 16.1335 306.504 16.019C306.463 15.8902 306.415 15.7686 306.36 15.6541C306.291 15.5682 306.209 15.4895 306.113 15.4179C306.03 15.3464 305.934 15.2891 305.824 15.2462C305.728 15.1889 305.625 15.1531 305.515 15.1388C305.405 15.1245 305.296 15.1174 305.186 15.1174C305.062 15.1317 304.932 15.1531 304.794 15.1818C304.671 15.1961 304.547 15.2319 304.423 15.2891C304.313 15.332 304.197 15.3821 304.073 15.4394C303.963 15.5109 303.86 15.5825 303.764 15.6541C303.64 15.7543 303.53 15.8616 303.434 15.9761C303.338 16.0763 303.249 16.1908 303.166 16.3196C303.084 16.4484 303.009 16.5844 302.94 16.7275C302.885 16.8563 302.837 16.9923 302.796 17.1354L297.233 34.6107L289.238 34.6322Z" fill="#222222"/>
<path fill-rule="evenodd" clip-rule="evenodd" d="M311.114 30.3377C311.21 30.0085 311.334 29.7008 311.485 29.4145C311.622 29.1139 311.787 28.8277 311.979 28.5558C312.172 28.2981 312.385 28.0548 312.618 27.8258C312.852 27.5968 313.099 27.3893 313.36 27.2033C313.607 27.0172 313.868 26.8598 314.143 26.731C314.404 26.5878 314.678 26.4662 314.967 26.366C315.255 26.2801 315.544 26.2086 315.832 26.1513C316.134 26.1084 316.43 26.0869 316.718 26.0869C316.965 26.0583 317.213 26.0583 317.46 26.0869C317.693 26.1298 317.927 26.1942 318.16 26.2801C318.394 26.366 318.614 26.4733 318.82 26.6021C319.026 26.7453 319.211 26.9099 319.376 27.0959C319.541 27.3249 319.671 27.5682 319.768 27.8258C319.877 28.0978 319.946 28.3769 319.974 28.6631C320.015 28.9494 320.008 29.2356 319.953 29.5218C319.912 29.8081 319.836 30.08 319.726 30.3377C319.63 30.6811 319.507 31.0175 319.356 31.3467C319.191 31.6758 319.005 31.9907 318.799 32.2913C318.593 32.5775 318.36 32.8495 318.099 33.1071C317.851 33.3647 317.584 33.5937 317.295 33.7941C317.048 33.9801 316.794 34.1447 316.533 34.2878C316.258 34.4453 315.983 34.5741 315.709 34.6743C315.42 34.7601 315.125 34.8317 314.823 34.889C314.52 34.9319 314.218 34.9534 313.916 34.9534C313.683 34.982 313.442 34.9748 313.195 34.9319C312.961 34.889 312.735 34.8174 312.515 34.7172C312.282 34.617 312.069 34.4882 311.876 34.3308C311.698 34.1733 311.533 33.9944 311.382 33.7941C311.217 33.5364 311.086 33.2645 310.99 32.9783C310.894 32.692 310.832 32.3986 310.805 32.0981C310.791 31.7975 310.812 31.4969 310.867 31.1964C310.908 30.8958 310.99 30.6096 311.114 30.3377Z" fill="#222222"/>
<path fill-rule="evenodd" clip-rule="evenodd" d="M27.3221 7.90332C29.5061 7.90332 31.6695 8.31122 33.7093 9.12702C35.749 9.94282 37.6034 11.1451 39.2311 12.6693C40.8382 14.1936 42.1775 16.0184 43.1664 18.0364C44.1554 20.0759 44.7735 22.2657 45.0002 24.5414H35.1927C35.0279 21.5787 33.8123 18.8093 31.7519 16.7913C29.7121 14.7518 26.9924 13.6354 24.1697 13.6354C21.3263 13.6354 18.6272 14.7518 16.5668 16.7913C14.5271 18.8093 13.2908 21.5787 13.1466 24.5414H9.66454C9.89119 22.2657 10.5093 20.0759 11.4983 18.0364C12.4873 16.0184 13.8059 14.1936 15.4336 12.6693C17.0407 11.1451 18.9157 9.94282 20.9555 9.12702C22.9952 8.31122 25.1587 7.90332 27.3221 7.90332ZM38.613 25.6792C38.3863 27.9334 37.7476 30.1232 36.7586 32.1412C35.7696 34.1592 34.451 35.984 32.8233 37.4868C31.2162 39.0111 29.3412 40.2133 27.3015 41.0077C25.2823 41.8235 23.1189 42.2528 20.9555 42.2528H20.8937V36.1343C22.5008 36.6496 24.2109 36.7784 25.8798 36.4993C27.5281 36.2417 29.1146 35.5761 30.4951 34.5671C31.8755 33.5581 33.0087 32.2271 33.8329 30.6813C34.6364 29.1571 35.1103 27.4396 35.1927 25.7007L38.613 25.6792ZM19.781 42.1884C19.314 42.1598 18.8401 42.1097 18.3594 42.0381C17.8924 41.9666 17.4253 41.8736 16.9583 41.7591C16.4913 41.6446 16.0311 41.5157 15.5779 41.3726C15.1246 41.2152 14.6782 41.0434 14.2386 40.8574V25.121C14.2386 20.5053 17.1644 16.4478 21.4294 15.1597C25.6944 13.893 30.2272 15.7178 32.5761 19.6466C34.9249 23.5538 34.4922 28.6204 31.5253 32.0553C28.5583 35.4903 23.7782 36.4563 19.781 34.4168V42.1884ZM13.126 40.3421C11.7661 39.6337 10.5093 38.7749 9.37609 37.7445C8.22227 36.7354 7.21268 35.5547 6.36792 34.2666C5.50256 32.9785 4.80203 31.583 4.28693 30.1232C3.77184 28.6418 3.42157 27.1176 3.27734 25.5504H13.126V40.3421ZM21.3881 22.2228V28.0192H26.9306V22.2228H21.3881Z" fill="#EA5708"/>
<path fill-rule="evenodd" clip-rule="evenodd" d="M4.40923 0.0673828H43.4536C44.0305 0.0673828 44.628 0.196193 45.1637 0.432346C45.6994 0.661343 46.1733 1.00484 46.5854 1.46283C46.9974 1.8922 47.3271 2.40744 47.5537 2.96562C47.7598 3.54527 47.8628 4.14639 47.8628 4.7475V45.4731C47.8628 46.0743 47.7392 46.6754 47.5331 47.2336C47.3065 47.7917 46.9768 48.307 46.5648 48.7149C46.1527 49.1442 45.6788 49.4877 45.1431 49.7239C44.6074 49.96 44.0305 50.0674 43.4536 50.0674H4.40923C3.83232 50.0674 3.25541 49.9386 2.74031 49.7024C2.20461 49.4663 1.71012 49.1228 1.31865 48.7149C0.90657 48.2855 0.576908 47.7703 0.350266 47.2336C0.123623 46.6754 0 46.0743 0 45.4731V4.7475C0 4.14639 0.123623 3.54527 0.329662 2.98709C0.556305 2.42891 0.885966 1.91367 1.27744 1.46283C1.68952 1.03346 2.18401 0.689968 2.71971 0.453815C3.25541 0.217662 3.83232 0.0888513 4.40923 0.0673828ZM4.40923 1.63458C4.01776 1.63458 3.62628 1.72045 3.25541 1.87073C2.90515 2.04248 2.57548 2.25716 2.28703 2.55772C2.01918 2.83681 1.79254 3.18031 1.64831 3.56674C1.48348 3.9317 1.42167 4.3396 1.40106 4.7475V45.4731C1.42167 45.881 1.50408 46.2889 1.66891 46.6539C1.81314 47.0403 2.03978 47.3624 2.30763 47.6629C2.59609 47.942 2.90515 48.1782 3.27602 48.3499C3.62628 48.5002 4.01776 48.5861 4.40923 48.6075H43.4536C43.845 48.6075 44.2365 48.5217 44.5868 48.3499C44.9576 48.1996 45.2873 47.9635 45.5552 47.6844C45.8436 47.3838 46.0703 47.0403 46.2145 46.6754C46.3587 46.2889 46.4411 45.881 46.4617 45.4731V4.7475C46.4617 4.3396 46.3793 3.9317 46.2351 3.54527C46.0909 3.18031 45.8642 2.83681 45.5758 2.53625C45.3079 2.2357 44.9783 2.02101 44.6074 1.84926C44.2365 1.69898 43.845 1.63458 43.4536 1.63458H4.40923Z" fill="#EA5708"/>
</svg>
