<svg width="250" height="31" viewBox="0 0 250 31" fill="none" xmlns="http://www.w3.org/2000/svg">
<g clip-path="url(#clip0_4_111)">
<path d="M246.89 6.22623C245.147 6.22623 243.906 4.89893 243.906 3.1463C243.907 1.29336 245.285 0.0673828 246.89 0.0673828C248.478 0.0673828 249.857 1.29336 249.857 3.1463C249.858 4.9972 248.478 6.22623 246.89 6.22623ZM246.89 0.601908C245.577 0.601908 244.555 1.64734 244.555 3.1463C244.555 4.54495 245.447 5.69069 246.89 5.69069C248.187 5.69069 249.208 4.65211 249.208 3.1463C249.208 1.6476 248.187 0.601908 246.89 0.601908ZM246.29 4.90807H245.739V1.49879H247.01C247.822 1.49879 248.235 1.78751 248.235 2.47973C248.235 3.09577 247.863 3.35173 247.359 3.40912L248.3 4.90782H247.676L246.81 3.44975H246.29V4.90807ZM246.905 2.97362C247.318 2.97362 247.684 2.93198 247.684 2.43808C247.684 2.02545 247.288 1.97694 246.955 1.97694H246.29V2.97388H246.905V2.97362Z" fill="#222222"/>
<path d="M70.4066 1.49707V21.5366L55.6594 1.49707H50.3281V28.9211H55.3699V8.55559L70.3709 28.9211H75.4504V1.49707H70.4066Z" fill="#222222"/>
<path d="M78.4062 1.49707V28.9211H96.6102V24.4568H83.4495V17.3139H96.1102V12.8465H83.4495V5.96169H96.6102V1.49707H78.4062Z" fill="#222222"/>
<path d="M163.444 1.49707H159.043L147.055 28.9214H152.4L155.83 21.003H166.614L170.046 28.9214H175.432L163.444 1.49707ZM161.263 7.47334L164.855 16.8668H157.633L161.263 7.47334Z" fill="#222222"/>
<path d="M195.249 1.49707V21.5345L180.503 1.49707H175.172V28.9211H180.213V8.55356L195.214 28.9211H200.295V1.49707H195.249Z" fill="#222222"/>
<path d="M203.203 1.49707V28.9211H221.408V24.4568H208.247V17.3139H220.908V12.8465H208.247V5.96169H221.408V1.49707H203.203Z" fill="#222222"/>
<path d="M234.523 12.3505L233.275 11.9904L232.942 11.8932C231.44 11.4577 228.924 10.7286 228.924 8.52172C228.924 7.08828 230.411 5.10051 233.202 5.10051C235.281 5.10051 237.707 6.05478 237.707 8.73985V9.01155H243.182V8.73985C243.182 4.14928 239.078 0.942383 233.202 0.942383C226.473 0.942383 223.447 5.39608 223.447 8.55727C223.447 10.7116 224.343 12.6915 225.845 13.855C227.49 15.1275 228.695 15.5749 233.128 16.9339C233.126 16.9339 233.74 17.1214 233.74 17.1214C235.922 17.779 238.395 18.5248 238.395 21.102C238.395 23.672 236.309 25.399 233.202 25.399C228.021 25.399 227.962 20.961 227.962 20.7726V20.5019H222.484V20.7726C222.484 26.8086 228.04 29.5569 233.202 29.5569C239.483 29.5569 243.87 26.0795 243.87 21.102C243.871 14.998 238.688 13.53 234.523 12.3505Z" fill="#222222"/>
<path d="M34.3018 0.942383C26.5189 0.942383 20.2109 7.34907 20.2109 15.2527C20.2109 23.1553 26.5191 29.5619 34.3018 29.5619C42.0837 29.5619 48.3919 23.1555 48.3919 15.2527C48.3919 7.34907 42.0837 0.942383 34.3018 0.942383ZM34.3013 24.7482C29.279 24.7482 25.2097 20.4969 25.2097 15.2524C25.2097 10.0072 29.279 5.7559 34.3013 5.7559C39.3231 5.7559 43.3929 10.0072 43.3929 15.2524C43.3932 20.4969 39.3231 24.7482 34.3013 24.7482Z" fill="#222222"/>
<path d="M121.206 15.3776C121.142 20.5644 117.102 24.7482 112.121 24.7482C107.099 24.7482 103.03 20.4969 103.03 15.2524C103.03 10.0092 107.097 5.75996 112.115 5.75692V0.942383C104.335 0.946446 98.0312 7.3511 98.0312 15.2527C98.0312 23.1553 104.339 29.5619 112.122 29.5619C119.863 29.5619 126.141 23.2228 126.208 15.3779L121.206 15.3776Z" fill="#EA5708"/>
<path d="M148.399 28.1276H148.978L148.596 27.6852L140.914 18.789C143.378 18.4449 148.871 16.9412 148.871 10.3737C148.871 7.79583 147.772 5.34184 145.931 3.81013C143.963 2.18827 141.447 1.49707 137.52 1.49707H127.935H127.672V1.76395V28.6545V28.9214H127.935H132.457H132.72V28.6545V16.0255L143.284 28.9211H148.978L148.293 28.1276H148.399ZM132.72 5.62726H137.226C142.098 5.62726 143.826 8.18435 143.826 10.3735C143.826 13.6459 141.207 15.3706 137.289 15.3747H132.72V5.62726Z" fill="#222222"/>
<path d="M5.39081 1.49707H0.382812V28.9214H5.39081V1.49707Z" fill="#222222"/>
<path d="M17.6758 1.48926L5.05469 15.0776L17.6421 28.9225H24.2628L11.6892 15.0725L24.2603 1.48926H17.6758Z" fill="#222222"/>
</g>
<defs>
<clipPath id="clip0_4_111">
<rect width="250" height="30" fill="white" transform="translate(0 0.0673828)"/>
</clipPath>
</defs>
</svg>
