<svg width="284" height="36" viewBox="0 0 284 36" fill="none" xmlns="http://www.w3.org/2000/svg">
<g clip-path="url(#clip0_4_33)">
<path opacity="0.9" d="M17.6016 10.5586L35.2116 35.2086V21.1286L17.6016 10.5586Z" fill="#EA5708"/>
<path opacity="0.8" d="M35.2094 21.13V0L17.6094 10.56L35.2094 21.13Z" fill="#EA5708"/>
<path opacity="0.7" d="M35.2116 0H25.1516L17.6016 10.56L35.2116 0Z" fill="#EA5708"/>
<path opacity="0.3" d="M0 21.1286V35.2086L17.6 10.5586L0 21.1286Z" fill="#EA5708"/>
<path d="M17.6 10.5586L0 35.2086H35.21L17.6 10.5586Z" fill="#EA5708"/>
<path opacity="0.5" d="M10.06 0H0L17.6 10.56L10.06 0Z" fill="#EA5708"/>
<path opacity="0.6" d="M25.1486 0H10.0586L17.5986 10.56L25.1486 0Z" fill="#EA5708"/>
<path opacity="0.4" d="M17.6 10.56L0 0V21.13L17.6 10.56Z" fill="#EA5708"/>
<path d="M94.5399 7.44077C93.2599 6.63077 91.3499 6.30078 87.9199 6.30078H77.5898V28.8808H82.6599V21.1308H88.1099C90.9599 21.1308 93.1099 21.0308 95.0499 19.6708C96.9899 18.3108 97.6999 16.4508 97.6999 13.7308C97.7766 12.4976 97.5256 11.2661 96.9724 10.1613C96.4191 9.05659 95.5833 8.11793 94.5499 7.44077M82.6599 10.6608H87.8599C90.9499 10.6608 92.0999 11.4908 92.0999 13.7308C92.0999 15.9708 90.8399 16.8008 88.0999 16.8008H82.6199L82.6599 10.6608Z" fill="#222222"/>
<path d="M116.68 7.44077C115.4 6.63077 113.48 6.30078 110.06 6.30078H99.7305V28.8808H104.8V21.1308H110.24C113.09 21.1308 115.24 21.0308 117.18 19.6708C119.12 18.3108 119.83 16.4508 119.83 13.7308C119.907 12.4976 119.656 11.2661 119.103 10.1613C118.55 9.05659 117.714 8.11793 116.68 7.44077ZM104.79 10.6608H109.99C113.08 10.6608 114.23 11.4908 114.23 13.7308C114.23 15.9708 112.97 16.8008 110.23 16.8008H104.75L104.79 10.6608Z" fill="#222222"/>
<path d="M132.471 5.85938C124.901 5.85938 121.211 9.61935 121.211 17.3694C121.211 25.5394 124.791 29.3694 132.471 29.3694C140.151 29.3694 143.731 25.5994 143.731 17.5994C143.731 9.59937 140.151 5.87936 132.471 5.87936M132.471 25.1194C128.471 25.1194 126.721 22.7494 126.721 17.4194C126.721 12.4894 128.601 10.0894 132.471 10.0894C136.341 10.0894 138.261 12.4794 138.261 17.5994C138.261 22.7194 136.421 25.1094 132.471 25.1094" fill="#222222"/>
<path d="M50.7981 7.23077C50.609 6.94727 50.3534 6.71431 50.0536 6.55222C49.7538 6.39012 49.4189 6.30381 49.0781 6.30078H44.0781V28.8808H49.1681V12.6908L57.7281 27.9008C57.9 28.1857 58.1378 28.4252 58.4214 28.5992C58.705 28.7732 59.0263 28.8766 59.3581 28.9008H64.0081V6.30078H58.9481V21.6008L50.7981 7.23077Z" fill="#222222"/>
<path d="M153.22 7.23077C153.031 6.94666 152.776 6.71323 152.476 6.55106C152.176 6.38888 151.841 6.30295 151.5 6.30078H146.5V28.8808H151.59V12.6908L160.14 27.9008C160.313 28.1851 160.55 28.4242 160.834 28.5981C161.117 28.772 161.438 28.8758 161.77 28.9008H166.42V6.30078H161.33V21.6008L153.22 7.23077Z" fill="#222222"/>
<path d="M73.3916 7.79907C73.3929 7.60209 73.3554 7.40677 73.2812 7.22427C73.2071 7.04178 73.0977 6.87569 72.9593 6.73547C72.821 6.59526 72.6563 6.48364 72.4748 6.40704C72.2933 6.33045 72.0986 6.29037 71.9016 6.28906H68.1016V28.869H73.3916V7.79907Z" fill="#222222"/>
<path d="M191.601 15.6008H185.661C183.821 15.6008 182.931 14.8808 182.931 13.4008C182.931 11.5108 183.931 10.7008 186.311 10.7008H197.801V6.30078H185.621C180.101 6.30078 177.621 8.46078 177.621 13.3008C177.621 17.8408 179.961 19.8608 185.201 19.8608H190.461C192.751 19.8608 193.561 20.4808 193.561 22.2208C193.561 23.9608 192.671 24.5208 190.151 24.5208H178.541V28.8808H190.921C196.351 28.8808 198.921 26.7108 198.921 22.0408C198.921 17.3708 196.731 15.6008 191.601 15.6008Z" fill="#222222"/>
<path d="M228.35 28.8708H241V24.6008H229.49C225.93 24.6008 226.55 23.1908 226.49 19.6008H241.01V15.3308H226.52C226.76 12.0908 226.31 10.5808 229.52 10.5808H241.03V6.30078H228.48C221.22 6.30078 220.81 10.0208 220.81 17.9908C220.81 17.9908 220.71 24.9908 222.52 26.9908C222.52 26.9908 223.84 28.9208 228.35 28.9208" fill="#222222"/>
<path d="M250.67 28.8708H263.31V24.6008H251.8C248.24 24.6008 248.86 23.1908 248.8 19.6008H263.32V15.3308H248.83C249.07 12.0908 248.62 10.5808 251.83 10.5808H263.34V6.30078H250.79C243.53 6.30078 243.13 10.0208 243.13 17.9908C243.13 17.9908 243.03 24.9908 244.84 26.9908C244.84 26.9908 246.16 28.9208 250.67 28.9208" fill="#222222"/>
<path d="M275.731 24.7908C273.891 24.7908 272.561 24.5608 271.591 23.4108C270.921 22.6208 270.871 21.4108 270.871 19.5308V6.30078H265.801V19.6908C265.801 22.6908 266.131 24.6908 267.861 26.5008C269.941 28.7108 272.261 28.8808 275.321 28.8808H283.471V24.8008H275.731V24.7908Z" fill="#222222"/>
<path d="M201.381 6.32812C201.037 6.33398 200.706 6.45868 200.444 6.68106C200.181 6.90344 200.004 7.2098 199.941 7.54813V10.5481H207.211V28.8281H212.441V10.5981H219.781V6.32812H201.381Z" fill="#222222"/>
</g>
<defs>
<clipPath id="clip0_4_33">
<rect width="283.46" height="35.21" fill="white"/>
</clipPath>
</defs>
</svg>
